<svg width="31" height="22" viewBox="0 0 31 22" fill="none" xmlns="http://www.w3.org/2000/svg">
<path d="M8.50448 7.65505C8.50448 8.08728 8.5445 8.43766 8.6143 8.69463C8.70291 8.98372 8.80961 9.26478 8.93352 9.53552C8.98343 9.62894 9.00332 9.72236 9.00332 9.8042C9.00332 9.9209 8.94352 10.0377 8.81381 10.1546L8.18526 10.6451C8.09545 10.7152 8.00564 10.7502 7.92572 10.7502C7.82602 10.7502 7.72621 10.6918 7.6264 10.5867C7.49197 10.4176 7.37172 10.2337 7.26728 10.0377C7.16746 9.83933 7.06765 9.61723 6.95794 9.34869C6.17967 10.4231 5.20178 10.9605 4.02448 10.9605C3.18642 10.9605 2.51785 10.6801 2.0289 10.1196C1.54007 9.55881 1.29065 8.81133 1.29065 7.87702C1.29065 6.88429 1.58998 6.07839 2.19863 5.47104C2.80717 4.8637 3.61546 4.56002 4.64314 4.56002C4.98237 4.56002 5.3316 4.59502 5.70073 4.65344C6.06997 4.71186 6.4491 4.80528 6.84824 4.9104V4.0578C6.84824 3.17006 6.68852 2.55114 6.37919 2.18904C6.05997 1.82695 5.52111 1.65169 4.75285 1.65169C4.40361 1.65169 4.04449 1.69853 3.67525 1.80366C3.30612 1.90865 2.94689 2.0372 2.59765 2.20075C2.43804 2.28246 2.31834 2.32917 2.24842 2.35259C2.17862 2.37601 2.12871 2.38759 2.08881 2.38759C1.9491 2.38759 1.8793 2.27075 1.8793 2.02549V1.45314C1.8793 1.26631 1.89931 1.12618 1.9491 1.04447C1.999 0.96263 2.08881 0.880925 2.22853 0.799219C2.57776 0.588961 2.99679 0.413701 3.48563 0.273575C3.97469 0.121738 4.49354 0.0517435 5.04228 0.0517435C6.2297 0.0517435 7.09778 0.366992 7.65653 0.997765C8.20527 1.6284 8.48471 2.58613 8.48471 3.87096V7.65505H8.50471H8.50448ZM4.45352 9.43039C4.78286 9.43039 5.12209 9.3604 5.48121 9.22013C5.84045 9.08001 6.15978 8.82304 6.42909 8.47266C6.58882 8.25083 6.70853 8.00557 6.76832 7.72518C6.82823 7.44493 6.86814 7.10612 6.86814 6.70903V6.21852C6.56555 6.13231 6.25907 6.06602 5.95015 6.01997C5.63908 5.97373 5.32584 5.9503 5.01227 5.94984C4.3437 5.94984 3.85487 6.10168 3.52565 6.41707C3.19631 6.73245 3.0367 7.17625 3.0367 7.76018C3.0367 8.30911 3.1564 8.71791 3.40582 8.9983C3.64535 9.29027 3.99459 9.43039 4.45352 9.43039ZM12.4656 10.6918C12.286 10.6918 12.1663 10.6568 12.0865 10.575C12.0067 10.505 11.9368 10.3414 11.877 10.1196L9.53229 1.09118C9.47226 0.857501 9.44236 0.705664 9.44236 0.623958C9.44236 0.437124 9.52216 0.331857 9.68189 0.331857H10.6597C10.8492 0.331857 10.979 0.366992 11.0488 0.448698C11.1286 0.51883 11.1885 0.682379 11.2483 0.90421L12.9246 8.63621L14.4811 0.90421C14.531 0.670667 14.5909 0.51883 14.6706 0.448698C14.7505 0.378704 14.8903 0.331995 15.0699 0.331995H15.868C16.0575 0.331995 16.1874 0.366992 16.2671 0.448698C16.347 0.51883 16.4168 0.682379 16.4567 0.90421L18.0332 8.72962L19.7593 0.90421C19.8191 0.670667 19.889 0.51883 19.9588 0.448698C20.0386 0.378704 20.1683 0.331995 20.3479 0.331995H21.2758C21.4355 0.331995 21.5253 0.425412 21.5253 0.623958C21.5253 0.682379 21.5153 0.740799 21.5053 0.810793C21.4953 0.880925 21.4754 0.974342 21.4355 1.10289L19.0308 10.1312C18.971 10.3648 18.9012 10.5167 18.8213 10.5867C18.7415 10.6568 18.6118 10.7035 18.4423 10.7035H17.5842C17.3946 10.7035 17.2648 10.6685 17.1849 10.5867C17.1051 10.505 17.0353 10.3531 16.9954 10.1196L15.4488 2.58613L13.9122 10.1077C13.8624 10.3414 13.8025 10.4933 13.7227 10.575C13.6429 10.6568 13.5032 10.6918 13.3237 10.6918H12.4655H12.4656ZM25.287 11.0072C24.7681 11.0072 24.2493 10.9371 23.7504 10.7969C23.2515 10.6568 22.8625 10.5048 22.603 10.3298C22.4433 10.2246 22.3335 10.1079 22.2937 10.0027C22.2548 9.89965 22.2345 9.78833 22.2338 9.67565V9.08001C22.2338 8.83475 22.3136 8.71791 22.4633 8.71791C22.5244 8.71818 22.5851 8.73004 22.6429 8.75305C22.7027 8.77647 22.7925 8.82304 22.8924 8.86975C23.2448 9.0512 23.6127 9.18824 23.9898 9.27855C24.3807 9.3714 24.7785 9.41834 25.1773 9.41868C25.8058 9.41868 26.2948 9.29027 26.634 9.0333C26.9732 8.77633 27.1528 8.40266 27.1528 7.92373C27.1528 7.59677 27.063 7.32809 26.8834 7.10612C26.7038 6.88429 26.3646 6.68574 25.8757 6.49877L24.4289 5.97327C23.7005 5.70459 23.1618 5.3075 22.8324 4.78185C22.5032 4.26792 22.3336 3.6957 22.3336 3.08835C22.3336 2.59785 22.4234 2.16562 22.603 1.79181C22.7825 1.41814 23.0221 1.09118 23.3214 0.834216C23.6207 0.565538 23.9599 0.366992 24.3591 0.226866C24.7581 0.0867405 25.1771 0.0283203 25.6162 0.0283203C25.8357 0.0283203 26.0652 0.0400319 26.2848 0.0750289C26.5143 0.110026 26.7238 0.156735 26.9333 0.203443C27.1328 0.261863 27.3224 0.320284 27.5021 0.390415C27.6817 0.460409 27.8213 0.530541 27.9211 0.600535C28.0608 0.69409 28.1605 0.787507 28.2204 0.892636C28.2803 0.986053 28.3102 1.11447 28.3102 1.27802V1.82695C28.3102 2.0722 28.2304 2.20075 28.0807 2.20075C28.0009 2.20075 27.8712 2.15391 27.7017 2.06049C27.1328 1.75681 26.4943 1.60498 25.7859 1.60498C25.2172 1.60498 24.7681 1.71011 24.4588 1.93208C24.1496 2.15391 23.9898 2.49272 23.9898 2.97151C23.9898 3.29861 24.0897 3.57886 24.2892 3.80083C24.4888 4.02266 24.8579 4.24463 25.3868 4.44318L26.8036 4.96882C27.522 5.2375 28.0408 5.61117 28.3501 6.08997C28.6595 6.5689 28.8092 7.11783 28.8092 7.72518C28.8092 8.2274 28.7193 8.68292 28.5496 9.08001C28.3701 9.4771 28.1306 9.82748 27.8213 10.1079C27.512 10.3998 27.1428 10.6101 26.7138 10.7619C26.2647 10.9255 25.7958 11.0072 25.287 11.0072V11.0072Z" fill="#252F3E"/>
<path d="M27.1728 16.6833C23.8902 19.5215 19.1208 21.0282 15.02 21.0282C9.27282 21.0282 4.09447 18.5403 0.183226 14.4057C-0.126104 14.0788 0.153212 13.635 0.522337 13.8918C4.75292 16.7651 9.97128 18.5053 15.3693 18.5053C19.0111 18.5053 23.0121 17.6177 26.694 15.7957C27.2427 15.5036 27.7116 16.2162 27.1728 16.6833V16.6833ZM28.5398 14.8612C28.1208 14.2306 25.766 14.5576 24.6984 14.7094C24.379 14.7563 24.3291 14.4292 24.6186 14.1839C26.4943 12.6421 29.5775 13.086 29.9366 13.5998C30.2959 14.1255 29.8368 17.7344 28.0808 19.4631C27.8115 19.7318 27.552 19.5916 27.6717 19.2412C28.0708 18.0848 28.9589 15.4803 28.5398 14.8612V14.8612Z" fill="#FF9900"/>
</svg>
