<svg width="256" height="256" viewBox="0 0 256 256" fill="none" xmlns="http://www.w3.org/2000/svg">
<g clip-path="url(#clip0_8_3)">
<path d="M196 0H60C26.8629 0 0 26.8629 0 60V196C0 229.137 26.8629 256 60 256H196C229.137 256 256 229.137 256 196V60C256 26.8629 229.137 0 196 0Z" fill="#3B3C37"/>
<path d="M165.164 95.913L165.119 95.484L164.425 95.544L164.47 95.972L165.164 95.913ZM169.831 107.139L169.846 107.375L170.334 107.331C170.319 107.183 170.378 106.947 170.481 106.651L170.437 106.223C170.23 106.238 170.023 106.548 169.831 107.139ZM151.619 121.275C151.589 120.876 150.348 119.325 147.896 116.592C147.852 116.09 148.694 115.337 150.422 114.347L155.356 110.049C156.464 108.645 157.114 106.371 157.306 103.21L157.247 102.486C157.055 100.3 155.474 98.542 152.475 97.198C150.703 96.001 147.512 95.337 142.904 95.218C139.093 95.543 134.115 96.902 127.985 99.31C126.301 100.521 124.381 101.733 122.224 102.944L122.254 103.313C122.387 103.298 122.594 103.224 122.83 103.062C123.081 103.032 123.229 103.151 123.244 103.387L123.613 103.195L123.79 103.18L123.805 103.343C123.82 103.535 122.49 104.583 119.802 106.459L120.009 106.843L119.831 106.858L119.388 106.696C119.403 106.829 119.211 106.917 118.842 106.947L118.857 107.109L119.285 107.641C119.152 107.656 118.945 107.597 118.665 107.493C118.044 107.552 117.439 107.877 116.833 108.498L117.084 107.405C117.985 103.52 118.605 100.078 118.93 97.095L118.886 96.903C118.266 96.503 117.66 95.943 117.099 95.233C117.114 94.775 117.114 94.51 117.099 94.451L117.055 94.288L116.877 94.332C114.927 97.257 111.176 102.25 105.607 109.31C101.368 114.332 99.182 117.124 99.049 117.685C97.32 119.473 96.493 120.551 96.582 120.92C96.124 121.216 95.932 121.511 96.006 121.836C95.873 121.866 95.784 121.821 95.755 121.688C95.016 122.885 93.923 123.653 92.461 123.993L90.924 124.347C90.718 124.391 90.614 124.539 90.629 124.79L90.673 124.982L91.249 124.849L91.294 125.012L89.994 125.514L87.69 126.046L86.478 126.12C86.301 126.297 87.438 126.105 86.995 126.208L85.489 126.563C84.573 126.77 84.071 126.696 83.982 126.326L83.805 126.371C83.835 126.533 83.849 126.651 83.82 126.755L83.731 126.385L82.52 126.666C82.431 126.105 80.792 124.066 77.616 120.551C77.556 119.871 78.679 118.882 80.969 117.597L87.439 111.91C88.886 110.049 89.743 107.065 90.024 102.959L89.934 101.998C89.684 99.103 87.586 96.769 83.642 94.968C81.309 93.387 77.114 92.545 71.058 92.412C66.035 92.84 59.477 94.628 51.412 97.744C49.196 99.354 46.67 100.95 43.834 102.53L43.879 103.032C44.071 103.018 44.322 102.914 44.632 102.737C44.957 102.707 45.134 102.855 45.164 103.151L45.666 102.87L45.917 102.855L45.932 103.092C45.947 103.328 44.189 104.702 40.629 107.213L40.909 107.656L40.659 107.671L40.112 107.479C40.127 107.626 39.876 107.73 39.359 107.774L39.389 108.04L39.979 108.69C39.787 108.705 39.521 108.645 39.182 108.527C38.029 108.631 36.907 109.458 35.799 111.024L36.079 111.467C37.039 110.58 37.601 110.137 37.763 110.123L37.823 110.846C37.66 110.861 37.409 110.965 37.069 111.142L37.675 112.058C38.8187 110.822 40.1139 109.735 41.53 108.823C42.224 109 42.594 109.222 42.608 109.458L43.14 109.414C46.951 106.592 50.718 104.554 54.455 103.298L54.499 103.801C53.805 104.835 53.332 105.366 53.081 105.396C53.111 105.75 53.229 106.061 53.451 106.326C53.51 106.962 51.811 111.245 48.369 119.162C40.555 137.567 33.997 151.186 28.665 159.99C28.679 160.167 28.783 160.403 28.975 160.699C30.289 160.388 31.116 160.063 31.471 159.753L31.751 159.724L31.796 160.226L32.283 160.182L32.786 159.901C32.8 160.049 32.963 160.123 33.303 160.093L33.347 160.595C33.391 161.083 33.111 161.821 32.52 162.84C31.988 163.446 31.412 164.716 30.806 166.651L30.821 166.888L31.309 166.843C33.436 164.465 35.046 162.131 36.154 159.857C42.357 158.04 47.084 156.253 50.364 154.495C53.657 154.214 56.168 153.343 57.882 151.91L57.852 151.644L56.612 152.013L56.331 152.043L56.301 151.777C58.724 151.408 60.393 150.876 61.323 150.137C66.035 146.504 69.595 143.933 72.003 142.412C76.951 138.778 80.171 135.233 81.633 131.792C81.899 131.733 82.165 131.674 82.461 131.6C83.155 131.57 83.539 131.555 83.642 131.526C83.612 131.393 83.672 131.319 83.805 131.289C84.913 131.171 84.381 131.363 85.09 131.201L86.951 130.772C86.833 130.802 86.789 130.861 86.818 130.979L87.098 130.802C87.0477 130.801 86.9979 130.791 86.951 130.772L87.261 130.699L87.114 130.787C87.32 130.817 87.542 130.802 87.794 130.743L87.926 131.289L79.462 144.746L77.586 147.094L76.671 150.167L76.848 150.123L77.763 149.739L77.468 150.935L77.557 151.289L77.807 151.6C77.69 151.629 77.645 151.703 77.675 151.836L77.719 152.028L78.103 151.939C78.665 151.452 78.901 151.009 78.813 150.61C79.418 150.713 79.817 150.758 80.023 150.699L80.068 150.891C79.698 150.979 79.507 151.275 79.477 151.777L79.521 151.969L79.728 151.925C82.8 148.572 90.334 137.094 96.375 129.31C96.183 128.468 99.329 127.301 105.829 125.795L106.035 125.75C106.272 126.77 105.769 129.236 104.529 133.151C103.731 135.514 103.347 136.814 103.406 137.021C102.372 140.167 101.885 141.866 101.944 142.131L99.639 149.679C98.148 153.549 97.01 157.611 96.213 161.895C96.346 161.866 96.553 161.88 96.848 161.954L97.173 161.674C97.203 161.806 97.291 161.851 97.423 161.821L97.291 161.275L98.295 161.245C98.591 161.171 98.842 160.802 99.049 160.123C99.004 159.103 99.211 158.557 99.669 158.439C100.289 156.016 100.673 154.805 100.806 154.761C101.382 152.353 101.811 150.979 102.091 150.64C102.963 147.508 103.598 145.898 104.012 145.795L104.1 146.179L103.465 147.818C102.357 152.737 101.235 156.622 100.097 159.473L100.422 160.891L100.629 160.846C103.377 154.938 107.335 143.239 112.49 125.75C112.638 124.214 113.377 123.018 114.691 122.176L114.396 121.866L114.351 121.703C114.942 121.57 115.356 121.334 115.592 121.009C115.563 120.876 115.046 120.684 114.041 120.418L116.611 109.399C117.173 108.897 117.498 108.631 117.601 108.631L117.645 109.192C117.512 109.207 117.306 109.281 117.069 109.443L117.557 110.137C118.418 109.196 119.39 108.363 120.452 107.656C120.984 107.804 121.249 107.981 121.279 108.158L121.663 108.128C124.588 105.987 127.453 104.45 130.275 103.52L130.304 103.889C129.787 104.672 129.433 105.071 129.241 105.086C129.27 105.352 129.344 105.588 129.477 105.795C129.521 106.282 128.251 109.532 125.651 115.558C119.713 129.517 114.735 139.842 110.688 146.548C110.703 146.681 110.792 146.858 110.954 147.094C111.944 146.858 112.579 146.607 112.83 146.371L113.007 146.356L113.037 146.725L113.45 146.696L113.82 146.504C113.834 146.607 113.967 146.651 114.218 146.637L114.248 147.035C114.278 147.39 114.071 147.951 113.613 148.719C113.184 149.177 112.741 150.137 112.269 151.6L112.283 151.792L112.668 151.762C114.278 149.96 115.504 148.188 116.345 146.445C121.057 145.056 124.647 143.712 127.128 142.383C129.654 142.161 131.56 141.511 132.86 140.418L132.845 140.226L131.885 140.507L131.678 140.521L131.663 140.329C133.495 140.063 134.78 139.65 135.474 139.103C139.049 136.356 141.752 134.391 143.583 133.239C149.285 129.089 151.944 125.1 151.619 121.275ZM150.644 121.526L150.777 123.018C150.6 123.387 150.408 123.579 150.23 123.594L150.009 121.053C150.422 121.201 150.629 121.349 150.644 121.526ZM38.797 109.502L38.547 109.517L38.502 109.059L39.522 108.97L39.536 109.207C39.374 109.222 39.123 109.31 38.797 109.502ZM33.82 159.295C33.229 159.03 32.697 158.926 32.24 158.97L32.18 158.247C32.15 157.966 32.313 157.774 32.667 157.7C32.992 157.671 33.184 157.907 33.214 158.38C34.071 157.331 34.544 156.799 34.632 156.784L35.179 157.006C35.001 158.483 34.544 159.236 33.82 159.295ZM87.01 103.653C86.76 103.682 86.257 102.9 85.533 101.349L85.489 100.891C85.961 100.846 86.449 101.614 86.966 103.195L87.01 103.653ZM86.301 98.143L86.094 98.631L78.871 95.617C83.687 95.78 86.168 96.622 86.301 98.143ZM55.8 124.332L54.78 124.421L54.736 123.963L55.756 123.874L55.8 124.332ZM54.973 108.601L55.223 108.586L55.283 109.31C55.047 109.325 54.737 109.679 54.353 110.359L54.308 109.857C54.766 109.31 55.002 108.897 54.973 108.601ZM52.831 113.653L52.92 114.613L52.668 114.628L52.58 113.668L52.831 113.653ZM51.708 115.455L52.196 115.411C52.152 116.208 51.93 116.637 51.531 116.666L51.28 116.681C51.59 116.149 51.738 115.736 51.708 115.455ZM50.866 117.966L51.147 117.936L51.162 118.173L50.704 118.941L50.216 118.985L50.202 118.749C50.689 118.705 50.911 118.453 50.866 117.966ZM50.039 120.226L49.892 121.437L49.64 121.452L49.537 120.255L50.039 120.226ZM41.753 143.786C41.428 145.44 41.073 146.282 40.704 146.312L40.689 146.075C40.601 145.263 40.955 144.495 41.753 143.786ZM40.231 147.08L40.246 147.316C40.276 147.641 40.128 147.833 39.803 147.848L39.788 147.611C39.758 147.331 39.906 147.154 40.231 147.08ZM39.788 153.919L40.556 153.845L40.586 154.111C40.394 154.126 40.143 154.229 39.832 154.406L39.345 154.45C39.315 154.199 39.478 154.007 39.788 153.919ZM61.649 147.168C57.336 149.295 54.795 150.743 54.042 151.496C49.375 153.121 47.056 154.126 47.1 154.524C42.95 156.164 40.217 157.375 38.902 158.128C38.592 158.158 38.149 158.04 37.558 157.774C37.484 156.932 37.868 156.253 38.68 155.706C39.3905 155.642 40.1058 155.754 40.763 156.031C41.531 155.632 42.875 155.189 44.781 154.716L44.737 154.214L43.2 154.347C43.392 154.081 44.87 153.387 47.646 152.264L48.414 152.191L48.429 152.427C47.115 152.545 46.391 152.929 46.229 153.623C46.258 153.933 46.435 154.066 46.76 154.037C47.75 153.416 48.237 153.047 48.222 152.944C50.098 152.589 55.283 149.871 63.776 144.805L63.821 145.263C63.835 145.484 63.111 146.105 61.649 147.168ZM48.621 151.452C49.862 151.349 50.926 150.846 51.811 149.975C52.166 149.945 52.358 150.078 52.373 150.388C51.768 150.448 50.601 150.95 48.902 151.925L48.651 151.939L48.621 151.452ZM69.641 135.307L63.126 140.462C58.282 143.638 55.682 145.233 55.313 145.263C47.602 149.502 42.801 151.703 40.94 151.866L40.66 151.895C40.896 151.024 44.323 144.007 50.97 130.802C53.895 130.551 58.503 129.192 64.78 126.71L66.317 126.578C69.493 126.297 71.871 126.917 73.437 128.394L73.525 129.354C72.344 132.752 71.045 134.731 69.641 135.307ZM56.908 128.143L57.957 128.055L57.971 128.291L56.923 128.38L56.908 128.143ZM71.635 125.647L72.403 125.573C73.112 125.913 73.481 126.208 73.511 126.474L73.525 126.71C72.845 126.77 72.211 126.415 71.635 125.647ZM73.717 113.786C73.037 114.598 71.177 115.987 68.134 117.936C67.129 118.025 63.392 119.473 56.923 122.309C56.5996 122.161 56.2433 122.1 55.889 122.131L55.844 121.674C55.77 120.743 56.184 119.576 57.1 118.158C57.602 115.499 58.149 113.978 58.754 113.609L64.146 101.481C64.086 100.728 65.239 100.152 67.602 99.753L68.37 99.679L68.43 100.374C70.748 100.019 72.196 99.812 72.757 99.768C77.041 99.398 79.271 100.27 79.448 102.353L79.936 102.309L79.833 101.083L80.364 101.038C81.62 101.733 82.299 102.575 82.388 103.564C82.447 104.244 82.078 105.086 81.295 106.09C80.97 106.12 80.778 105.883 80.748 105.411L80.217 105.455L80.098 106.932C77.927 110.182 76.347 111.851 75.372 111.939C74.485 113.165 73.939 113.771 73.717 113.786ZM77.026 122.279C76.583 121.984 76.228 121.851 75.962 121.866L75.903 121.142L76.391 121.097L77.469 121.733C77.513 122.072 77.366 122.25 77.026 122.279ZM80.453 126.341C80.925 126.533 81.206 126.74 81.265 126.932L81.029 126.991L81.044 127.006C80.9936 127.009 80.9438 127.019 80.896 127.035L80.541 127.316L80.453 126.341ZM80.778 128.38L80.734 128.188L81.354 128.04L81.398 128.232L80.778 128.38ZM82.27 130.049C82.905 129.945 83.215 129.901 84.397 129.635L84.441 129.827L82.196 130.344C82.226 130.241 82.255 130.137 82.27 130.049ZM84.456 130.979C83.511 131.068 83.717 130.95 82.211 131.289L82.166 131.097L84.042 130.492L84.943 130.285L85.032 130.64C84.633 130.728 84.928 130.728 84.456 130.979ZM86.45 130.507C86.228 130.566 86.051 130.462 85.948 130.211L86.524 130.078C86.774 130.019 86.937 130.123 86.996 130.374L86.45 130.507ZM91.856 124.687L91.812 124.495L92.742 124.273L92.831 124.628L91.856 124.687ZM97.632 160.108C97.691 159.842 97.705 159.65 97.676 159.517L97.883 159.473C98.133 159.414 98.281 159.502 98.341 159.739L98.385 159.931L97.632 160.108ZM101.679 126.208L101.265 126.134C100.601 126.4 100.039 126.592 99.581 126.696L99.197 126.784C98.976 126.843 98.799 126.755 98.71 126.518L101.413 125.898L102.299 125.484L102.595 125.824C102.166 125.913 101.856 126.046 101.679 126.208ZM103.762 125.544L103.717 125.352C103.85 125.322 104.027 125.219 104.219 125.027L106.14 124.583L106.184 124.775C105.165 125.027 104.352 125.278 103.762 125.544ZM104.057 121.659C103.924 121.688 103.747 121.806 103.525 121.984C103.496 121.851 103.23 121.851 102.728 121.969C102.639 121.6 104.057 121.083 106.996 120.403L107.41 120.315L107.499 120.669C105.431 121.275 104.279 121.614 104.057 121.659ZM109.227 116.075C109.02 118.424 108.193 119.753 106.731 120.093L106.686 119.901L105.386 120.403L104.81 120.536C104.548 120.606 104.272 120.601 104.013 120.521L103.895 120.004C103.85 119.812 105.726 117.213 109.537 112.22L109.98 112.294C110.143 112.973 109.892 114.229 109.227 116.075ZM118.37 108.247L118.193 108.261L118.163 107.892L118.931 107.818L118.946 108.01C118.813 108.04 118.621 108.114 118.37 108.247ZM114.604 146.075C114.16 145.868 113.762 145.78 113.422 145.809L113.378 145.248C113.363 145.056 113.481 144.923 113.732 144.849C113.983 144.82 114.131 144.997 114.16 145.381C114.796 144.569 115.15 144.155 115.224 144.155L115.623 144.318C115.475 145.44 115.135 146.031 114.604 146.075ZM154.988 103.83C154.796 103.845 154.426 103.254 153.85 102.058L153.821 101.688C154.19 101.659 154.574 102.235 154.958 103.417L154.988 103.83ZM154.456 99.606L154.279 99.99L148.813 97.7C152.462 97.818 154.352 98.453 154.456 99.606ZM131.28 119.502L130.512 119.576L130.482 119.207L131.25 119.148L131.28 119.502ZM130.645 107.552L130.852 107.538L130.896 108.099C130.704 108.114 130.468 108.38 130.187 108.897L130.157 108.527C130.497 108.099 130.66 107.774 130.645 107.552ZM129.035 111.393L129.094 112.117L128.887 112.131L128.828 111.408L129.035 111.393ZM128.163 112.767L128.547 112.737C128.503 113.357 128.341 113.682 128.06 113.712L127.853 113.727C128.075 113.313 128.178 112.988 128.163 112.767ZM127.543 114.657L127.72 114.642L127.735 114.835L127.395 115.425L127.011 115.455L126.996 115.263C127.395 115.233 127.572 115.027 127.543 114.657ZM126.923 116.371L126.79 117.316L126.612 117.331L126.539 116.4L126.923 116.371ZM120.615 134.288C120.364 135.529 120.098 136.164 119.818 136.193L119.803 136.031C119.759 135.411 120.024 134.82 120.615 134.288ZM119.448 136.784L119.463 136.947C119.493 137.213 119.375 137.36 119.109 137.375L119.094 137.183C119.079 136.991 119.197 136.858 119.448 136.784ZM119.123 141.984L119.714 141.939L119.729 142.131C119.596 142.146 119.389 142.22 119.153 142.353L118.769 142.383C118.754 142.176 118.872 142.043 119.123 141.984ZM135.711 136.858C132.462 138.468 130.527 139.561 129.921 140.123C126.376 141.363 124.618 142.131 124.648 142.442C121.502 143.697 119.434 144.598 118.459 145.174C118.222 145.189 117.883 145.1 117.44 144.894C117.38 144.258 117.676 143.741 118.296 143.357C118.834 143.307 119.377 143.388 119.877 143.594C120.468 143.298 121.487 142.973 122.934 142.604L122.905 142.235L121.694 142.323C121.841 142.117 122.979 141.585 125.091 140.728L125.682 140.684L125.697 140.846C124.692 140.935 124.131 141.23 124.013 141.762C124.027 141.998 124.175 142.117 124.426 142.087C125.165 141.6 125.519 141.319 125.519 141.23C126.937 140.979 130.866 138.911 137.321 135.041L137.351 135.411C137.366 135.573 136.819 136.046 135.711 136.858ZM125.815 140.108C126.736 140.035 127.604 139.643 128.267 139C128.518 138.97 128.666 139.089 128.68 139.325C128.237 139.369 127.366 139.739 126.051 140.448L125.844 140.462L125.815 140.108ZM141.797 127.833L136.878 131.792C133.2 134.199 131.206 135.411 130.896 135.44C125.047 138.66 121.413 140.329 119.98 140.448L119.773 140.462C119.951 139.798 122.565 134.465 127.617 124.45C129.818 124.258 133.304 123.21 138.089 121.319L139.286 121.216C141.694 121.009 143.496 121.481 144.677 122.619L144.736 123.343C143.835 125.883 142.861 127.375 141.797 127.833ZM132.137 122.397L132.905 122.323L132.92 122.515L132.152 122.589L132.137 122.397ZM143.318 120.492L143.909 120.448C144.456 120.713 144.736 120.95 144.751 121.142L144.766 121.304C144.249 121.349 143.762 121.083 143.318 120.492ZM144.869 111.496C144.352 112.117 142.949 113.18 140.66 114.657C139.892 114.731 137.056 115.824 132.152 117.951C131.901 117.864 131.634 117.829 131.369 117.848L131.339 117.479C131.28 116.77 131.59 115.883 132.27 114.805C132.654 112.767 133.082 111.629 133.525 111.363L137.646 102.146C137.602 101.6 138.474 101.157 140.246 100.817L140.837 100.772L140.881 101.334C142.624 101.053 143.717 100.891 144.16 100.846C147.41 100.566 149.109 101.216 149.242 102.811L149.626 102.781L149.552 101.895L149.936 101.866C150.881 102.383 151.383 103.003 151.443 103.741C151.487 104.273 151.221 104.923 150.66 105.676C150.409 105.706 150.261 105.529 150.231 105.145L149.847 105.174L149.729 106.282C148.089 108.778 146.893 110.063 146.14 110.123C145.475 111.024 145.061 111.481 144.869 111.496ZM146.598 117.641L146.553 117.08L146.937 117.05L147.765 117.552C147.779 117.789 147.661 117.922 147.41 117.951C147.056 117.73 146.79 117.626 146.598 117.641ZM77.838 153.52L77.454 153.609L77.129 153.889C77.189 154.126 77.336 154.214 77.587 154.155C77.838 154.096 77.942 153.948 77.883 153.712L77.838 153.52ZM76.376 150.61L76.42 150.802C76.672 150.743 76.775 150.595 76.716 150.359L76.671 150.167C76.434 150.226 76.332 150.374 76.376 150.61ZM86.775 125.868L87.218 125.765L87.129 125.381L86.686 125.484L86.775 125.868ZM220.807 137.124C216.317 138.128 215.756 137.951 214.81 138.025L214.84 138.394L215.253 138.365L215.475 138.35L215.416 138.306L215.903 138.114C220.349 137.626 220.866 137.804 220.822 137.301L220.807 137.124ZM196.627 140.329L196.657 140.699H196.716L196.686 140.329H196.627ZM193.85 130.595L193.451 130.462C193.126 131.334 192.964 131.851 192.979 131.998L192.993 132.161C193.304 132.146 193.584 131.614 193.85 130.595ZM221.723 137.05L221.753 137.419L222.403 137.538L222.373 137.168L221.723 137.05ZM191.162 140.787L190.157 140.669L189.98 141.053L189.995 141.245L195.977 140.743L195.948 140.374L191.162 140.787ZM188.444 127.685L188.429 127.493L188.222 127.508L187.853 127.744L188.06 128.099C188.341 128.069 188.474 127.936 188.444 127.685ZM224.559 134.332L224.84 134.303C225.002 134.288 225.076 134.155 225.061 133.919L224.899 133.564C223.88 133.653 223.407 133.697 222.58 134.155L222.565 133.963L221.339 134.081C221.31 133.712 221.206 133.52 221.044 133.535L220.409 133.594C219.67 133.653 219.315 133.623 218.946 133.904C218.931 133.771 218.887 133.712 218.813 133.712L218.104 133.771L217.691 134.007C217.676 133.874 217.632 133.815 217.558 133.815L217.307 134.037L217.292 133.845L216.302 133.771L216.066 133.786L216.095 134.155L216.598 134.288L217.07 134.258C217.233 134.362 217.41 134.391 217.617 134.377L218.03 134.17L218.045 134.332C215.726 134.908 215.741 134.805 214.146 135.071C213.968 134.953 213.835 134.894 213.747 134.908L213.717 134.938C213.54 134.923 213.437 134.805 213.422 134.613L214.249 134.51C214.308 134.51 214.352 134.569 214.81 134.657C215.475 134.332 215.505 134.199 215.859 134.17L215.83 133.801C213.555 134.244 214.471 133.948 211.62 134.199L211.487 134.214L211.457 133.845C215.12 133.402 213.895 133.653 215.15 133.298C215.165 133.431 215.209 133.49 215.283 133.49C215.418 133.353 215.595 133.265 215.785 133.239L216.036 133.224C217.321 133.121 217.75 133.372 220.29 132.663L220.305 132.826L220.719 132.619L221.103 132.589C221.073 132.22 221.635 132.161 221.827 132.146L221.797 131.747C217.336 132.648 216.169 132.397 214.928 132.752L214.914 132.589C213.747 132.796 213.702 132.707 213.407 132.722C213.318 132.737 213.186 132.811 213.038 132.959C213.023 132.826 212.979 132.767 212.89 132.767C212.846 132.767 212.831 132.781 212.816 132.781L209.035 133.402C209.02 133.298 208.976 133.239 208.887 133.254C206.923 133.668 207.454 133.741 204.825 133.978C204.707 133.993 204.544 134.052 204.338 134.185C204.323 134.081 204.264 134.022 204.131 134.037L202.521 134.17L201.443 134.436C201.428 134.332 201.369 134.273 201.236 134.288C200.63 134.45 200.098 134.554 199.67 134.583H199.64C199.375 134.613 199.773 134.51 199.567 134.421L199.242 134.613C198.769 134.657 199.02 134.583 197.395 134.598C194.544 134.953 194.855 134.997 194.544 135.012L193.481 134.938C193.496 135.041 193.437 135.115 193.318 135.115C192.107 134.953 191.487 134.761 191.472 134.539C191.635 133.387 191.915 132.796 192.314 132.767L192.521 132.752L192.344 133.136L192.55 133.121C192.934 132.914 193.112 132.722 193.097 132.545L193.067 132.146L192.683 132.176L192.654 131.806C192.624 131.526 192.669 131.275 192.772 131.068L193.643 129.665L193.673 130.034L194.087 130.004L194.057 129.635L193.821 129.295C194.131 129.029 194.367 128.882 194.559 128.867L194.544 128.675L193.983 128.719L193.939 128.158C195.061 125.824 195.593 124.465 195.564 124.081L195.962 124.244C196.214 124.229 196.332 124.081 196.317 123.815L195.933 123.845L195.918 123.682C195.889 123.402 195.948 123.136 196.066 122.9C196.671 122.264 196.952 121.629 196.893 120.965C197.011 120.95 197.07 121.009 197.085 121.142C197.602 120.846 198.001 120.063 198.296 118.764C199.212 117.109 200.512 113.801 202.211 108.852C205.46 100.108 205.327 99.177 205.785 97.109L205.401 97.139C205.427 97.3991 205.376 97.6612 205.253 97.892C204.988 97.789 204.781 97.73 204.633 97.744L204.618 97.582C204.559 96.829 204.869 95.928 205.578 94.864L205.756 94.849L206.081 96.119L206.465 96.09C206.45 96.001 206.553 95.5 206.76 94.569C206.745 94.377 206.598 94.259 206.302 94.244L205.933 94.48C205.903 94.214 205.918 93.52 205.962 92.412L205.77 92.427C205.445 92.102 205.283 91.836 205.268 91.614L203.156 91.821C203.141 91.674 203.067 91.452 202.92 91.171C202.905 90.979 203.378 90.787 204.352 90.595L204.781 90.758L205.18 90.521C205.194 90.654 205.268 90.713 205.416 90.699L205.815 90.462C205.83 90.595 205.903 90.654 206.051 90.639L206.243 90.625L206.214 90.196C205.918 90.226 205.135 90.226 203.895 90.182L203.496 90.448L203.481 90.211C193.57 91.024 187.942 91.481 186.598 91.614C186.42 91.629 185.726 91.614 184.5 91.584C184.515 91.747 184.367 91.836 184.072 91.865L183.643 91.674L182.196 92.043C181.856 92.073 181.28 92.058 180.482 91.969C180.261 92.146 179.995 92.249 179.67 92.279C181.084 92.2011 182.497 92.1124 183.909 92.013C183.688 92.19 183.348 92.293 182.875 92.338C182.55 92.368 182.27 92.323 182.033 92.191C181.708 92.338 180.66 92.575 178.902 92.929L178.474 92.767L171.561 93.83C171.295 93.697 170.985 93.653 170.63 93.682C170.261 93.712 169.64 93.845 168.784 94.082L165.445 95.47L165.697 95.883C165.859 95.869 166.095 95.78 166.376 95.617L167.558 95.721L167.41 96.829C166.317 97.316 165.682 98.039 165.505 98.956C163.865 99.679 163.053 100.196 163.053 100.507L163.067 100.699L163.318 100.684L163.762 100.448L164.279 101.068L164.352 101.925C164.382 102.191 161.62 107.996 156.095 119.34C151.31 130.27 148.798 136.253 148.562 137.331C146.923 137.789 145.977 138.453 145.697 139.34C145.726 139.62 146.214 139.812 147.159 139.886L147.203 140.315L146.775 141.024L146.849 141.88C146.893 142.323 148.089 142.663 150.438 142.9C150.423 142.752 150.497 142.663 150.66 142.648C150.704 143.18 150.556 144.214 150.217 145.75L150.468 145.736C151.443 144.406 151.9 143.49 151.856 142.988L152.063 142.973C152.299 142.959 152.55 143.224 152.846 143.801C152.55 143.919 151.516 146.267 149.744 150.861L149.995 151.275L150.246 151.26C152.417 145.765 153.776 142.722 154.338 142.146C157.188 141.895 162.122 141.393 169.123 140.64L169.567 140.374C169.581 140.521 169.67 140.595 169.832 140.58L170.29 140.536L170.733 140.27C170.748 140.418 170.837 140.492 170.999 140.477L176.302 140.019C177.705 139.901 178.37 139.473 178.311 138.749C178.296 138.557 179.123 138.335 180.793 138.099C180.955 138.084 181.191 138.128 181.516 138.232C181.502 138.099 182.344 137.966 184.027 137.818C184.072 136.932 184.352 136.459 184.855 136.415L184.81 135.987C184.338 136.031 183.806 136.149 183.186 136.356C182.078 136.297 181.369 136.208 181.073 136.105C180.778 136.267 180.556 136.356 180.394 136.371L176.701 136.489L176.258 136.725C176.243 136.592 176.154 136.533 175.992 136.548L175.785 136.563L175.313 136.799C175.298 136.666 174.914 136.563 174.146 136.459L173.673 136.74L172.757 136.814L172.742 136.578C177.499 136.061 179.847 135.411 179.788 134.642C180.098 134.613 180.261 134.761 180.29 135.071L181.679 134.716L181.635 134.288L170.246 134.598C170.261 134.746 170.187 134.835 170.024 134.849L168.636 134.731C168.282 134.761 167.986 134.864 167.75 135.041L167.233 134.849C165.8 134.967 164.736 135.145 164.027 135.366C163.053 135.292 161.974 135.307 160.778 135.411L158.222 135.632L157.041 135.499C156.982 134.746 158.444 131.038 161.457 124.391C162.329 122.146 163.126 120.743 163.894 120.211C164.057 120.196 164.293 120.255 164.618 120.388L166.435 119.768L167.366 119.916C168.931 119.783 170.748 119.34 172.831 118.572C173.348 118.527 173.732 118.557 174.013 118.675L175.401 118.35L179.537 117.996C181.295 117.848 183.2 117.464 185.268 116.829L185.224 116.4C184.456 116.474 184.057 116.341 184.027 116.031C183.983 115.455 183.422 115.219 182.344 115.307L182.299 114.879L183.437 114.554L186.42 114.303L186.376 113.874C186.258 113.889 185.652 113.874 184.53 113.83L184.485 113.372L185.637 113.269C185.948 113.239 186.081 113.092 186.051 112.796C184.5 112.84 183.717 112.767 183.702 112.56C172.89 113.092 167.469 113.195 167.44 112.855C167.277 112.87 167.056 112.973 166.76 113.151L166.479 112.707C169.345 106.622 171.029 103.549 171.516 103.505C171.531 103.741 171.413 104.126 171.147 104.642L171.162 104.835L171.62 104.79C172.757 102.072 173.717 100.669 174.515 100.61C177.912 100.315 174.042 100.093 181.31 98.956C181.605 99.089 181.812 99.148 181.96 99.133C184.81 98.557 188.784 97.951 193.88 97.331L193.85 96.903L191.132 97.153L191.103 96.725C191.428 96.695 191.694 96.592 191.915 96.415L191.93 96.651C192.078 96.637 192.284 96.533 192.55 96.356C193.023 96.312 193.378 96.356 193.629 96.489C194.574 96.238 195.342 96.09 195.903 96.031L197.602 95.868C198.016 95.603 198.208 95.366 198.193 95.145L198.178 94.953C197.75 94.997 197.262 94.967 196.686 94.864C196.671 94.628 196.79 94.465 197.07 94.391L200.231 94.096L201.679 93.726C201.694 93.889 201.767 93.948 201.886 93.948C202.033 93.934 202.24 93.83 202.506 93.653C202.58 93.668 202.669 93.668 202.742 93.683C202.55 94.081 202.329 94.657 202.107 95.411L201.694 95.441C201.671 95.1753 201.591 94.9178 201.457 94.687L201.25 94.702C197.41 105.396 195.697 110.374 192.152 118.586C191.502 120.684 190.955 121.851 190.482 122.102C190.497 122.338 190.645 122.456 190.896 122.427C190.985 123.461 190.748 124.48 190.172 125.484C188.533 130.211 187.44 132.796 186.878 133.269L187.248 135.499C187.262 135.736 187.144 135.868 186.893 135.898L186.509 135.928C186.45 135.307 186.228 135.012 185.83 135.056L185.623 135.071C185.121 135.854 184.736 136.755 184.485 137.804L184.869 137.774C185.386 137.434 185.623 137.035 185.578 136.578L186.346 136.504L186.79 136.666C186.435 137.227 186.273 137.671 186.302 138.01L186.509 138.365L186.007 139.546L186.022 139.739C186.465 139.694 186.952 139.842 187.469 140.152C187.824 140.123 188.208 139.96 188.636 139.679C189.079 139.635 190.733 139.62 193.584 139.62L195.017 139.133C196.76 139.118 197.041 139.162 198.547 139.03L199.168 138.97L199.493 138.749L199.508 138.941C201.088 138.808 201.191 138.911 202.432 139.059L202.447 139.251L201.575 139.325L201.605 139.694C201.871 139.665 202.107 139.591 202.299 139.428C202.521 139.414 202.654 139.532 202.669 139.798C202.261 139.839 201.859 139.928 201.472 140.063L201.088 139.931C200.482 140.093 200.615 140.137 200.202 140.167L199.596 140.049C199.611 140.152 199.552 140.226 199.448 140.226C199.463 140.462 199.596 140.58 199.818 140.566L200.438 140.507L203.673 140.226L204.899 139.96C204.914 140.063 204.958 140.123 205.061 140.108L205.652 139.886L206.76 139.798C207.617 139.724 207.602 139.665 209.463 139.369C209.448 139.251 209.493 139.207 209.581 139.192L209.596 139.354C212.624 138.837 212.816 138.808 213.304 138.645L213.348 138.734C214.101 138.557 213.673 138.601 213.88 138.453C213.895 138.586 213.939 138.645 214.013 138.645L214.544 138.601L214.515 138.202L213.437 138.188L213.422 138.158C213.378 138.173 213.348 138.173 213.304 138.188H213.156V138.217C212.432 138.365 212.417 138.261 211.945 138.306L209.242 138.453L209.227 138.261L210.734 138.055L211.28 138.01L211.59 137.789L211.605 137.981C213.732 137.804 214.485 138.335 224.323 136.238C224.855 136.193 224.81 135.75 225.15 134.835C224.97 134.847 224.79 134.805 224.633 134.716C223.821 135.027 223.392 134.879 221.827 135.13C221.694 135.145 221.59 135.027 221.546 134.79L221.531 134.628L223.038 134.672C223.318 134.642 223.865 134.598 224.677 134.14C224.677 134.273 224.382 134.347 224.559 134.332ZM151.827 135.499L151.132 135.558C151.103 135.278 151.472 134.214 152.24 132.397L152.698 132.353C152.713 132.781 152.432 133.83 151.827 135.499ZM152.669 132.131L152.654 131.939C152.639 131.703 152.787 131.541 153.112 131.467L153.126 131.659C153.141 131.939 152.993 132.102 152.669 132.131ZM161.9 139.266L161.915 139.458L160.763 139.561L160.748 139.369L161.9 139.266ZM160.512 139.148C160.527 139.384 160.172 139.65 159.404 139.916L157.986 139.812L157.528 139.857L157.484 139.428L160.512 139.148ZM169.847 96.178L169.153 96.238L169.138 96.001C169.123 95.765 169.256 95.603 169.552 95.529L169.803 95.514L170.276 95.706C170.29 95.986 170.157 96.148 169.847 96.178ZM180.409 94.111L180.63 94.096L180.66 94.524L180.024 94.584C180.01 94.347 180.128 94.184 180.409 94.111ZM177.75 95.041L176.701 94.923L176.686 94.731C178.06 94.613 178.518 94.465 179.36 94.229C179.375 94.391 179.522 94.451 179.788 94.421L179.818 94.849L179.404 94.894C179.079 94.924 178.798 94.879 178.562 94.746C178.319 94.9087 178.041 95.0099 177.75 95.041ZM179.064 98.867L179.05 98.675L180.748 98.513L180.763 98.704L179.064 98.867ZM180.881 97.39L180.866 97.154L181.694 97.08L181.708 97.316L180.881 97.39ZM181.073 94.495L180.852 94.51L181.044 94.052L182.934 93.874L182.949 94.111C182.462 94.155 181.827 94.288 181.073 94.495ZM182.033 98.572L182.004 98.143L182.831 98.069C183.112 98.039 183.259 98.173 183.274 98.469L182.033 98.572ZM187.041 91.747L185.977 92.043L185.785 92.058C185.283 92.102 184.633 92.088 183.865 92.013C185.239 91.925 186.553 91.821 187.041 91.747ZM185.903 96.474L185.918 96.666L184.456 96.799L184.441 96.607L185.903 96.474ZM188.296 97.612C188.282 97.434 188.001 97.316 187.425 97.257L185.962 97.671L184.84 97.715C184.589 97.538 184.456 97.419 184.441 97.331L185.741 97.405L188.666 96.932L190.157 96.992L190.172 97.227C189.534 97.2832 188.905 97.4123 188.296 97.612ZM203.348 93.727C203.525 93.741 203.643 93.741 203.688 93.741C204.194 93.2405 204.79 92.8398 205.445 92.56C204.914 94.894 204.087 96.622 202.949 97.744L202.122 97.242C202.816 95.484 203.23 94.317 203.348 93.727ZM200.807 98.084L201.014 98.069C200.734 98.601 200.482 98.882 200.276 98.897L200.231 98.335C200.364 98.335 200.556 98.246 200.807 98.084ZM199.168 101.998C199.567 100.403 199.951 99.502 200.305 99.266L200.32 99.458C200.113 100.935 199.788 101.718 199.36 101.777L199.434 102.707C199.079 103.21 198.917 103.594 198.931 103.889L198.725 103.904L198.606 102.619C198.843 102.589 199.035 102.383 199.168 101.998ZM198.533 104.126C198.547 104.347 198.4 104.864 198.104 105.662L197.897 105.676L197.853 105.115C198.134 104.465 198.37 104.14 198.533 104.126ZM186.612 138.719L186.598 138.557L186.982 138.527L187.026 139.089C186.819 139.103 186.671 138.985 186.612 138.719ZM203.643 139.162C203.629 139.029 203.57 138.97 203.437 138.985L202.476 139.074L202.462 138.882H202.55L204.825 138.69L204.84 138.882C204.175 138.911 203.776 139.015 203.643 139.162ZM202.506 138.69C202.595 138.734 202.55 138.778 202.506 138.808C202.462 138.793 202.403 138.749 202.506 138.69ZM202.624 136.031L201.354 136.134L201.339 135.942L202.491 135.839L203.496 135.588C203.51 135.706 203.57 135.75 203.702 135.736C204.899 135.529 204.781 135.47 205.357 135.425C205.549 135.411 205.667 135.529 205.682 135.765L202.624 136.031ZM207.07 135.647C206.361 135.573 206.317 135.514 205.815 135.558L205.8 135.396L206.937 135.292L206.952 135.455C206.834 135.47 207.262 135.499 207.07 135.647ZM207.159 135.44L207.144 135.278L207.765 135.219L207.779 135.381L207.159 135.44ZM208.533 135.322L208.518 135.159C208.621 135.145 208.769 135.071 208.961 134.923C209.271 134.894 209.434 135.1 209.463 135.337L208.533 135.322ZM210.29 135.1L210.276 134.908L211.029 134.849L211.044 135.041L210.29 135.1ZM211.339 135.012C211.324 134.79 211.413 134.657 211.605 134.628L211.856 134.953C211.841 134.849 211.886 134.79 211.974 134.775L212.166 135.13L211.339 135.012ZM200.187 139.827L200.157 139.458L200.039 139.473L200.069 139.842L200.187 139.827ZM226.14 133.106C226.258 133.032 226.317 132.959 226.036 132.914C225.903 133.062 226.184 133.106 225.889 133.121L225.903 133.254C225.933 133.224 226.007 133.18 226.066 133.136L225.903 133.269V133.284L225.593 133.682L226.214 133.461H226.287L226.258 133.092L226.14 133.106ZM227.218 133.948L227.1 133.963L227.129 134.332L228.001 134.258C227.986 134.022 227.41 133.948 227.218 133.948ZM225.874 133.298L225.889 133.284V133.269C225.889 133.269 225.874 133.284 225.874 133.298Z" fill="black"/>
<path d="M169.167 105.957L169.182 106.193L169.669 106.149C169.654 106.001 169.713 105.765 169.817 105.47L169.773 105.041C169.566 105.056 169.359 105.366 169.167 105.957ZM164.499 94.731L164.455 94.303L163.761 94.362L163.805 94.79L164.499 94.731ZM150.954 120.093C150.925 119.694 149.684 118.143 147.232 115.411C147.188 114.908 148.03 114.155 149.758 113.165L154.691 108.867C155.799 107.464 156.449 105.189 156.641 102.028L156.582 101.304C156.39 99.118 154.809 97.36 151.811 96.016C150.038 94.82 146.848 94.156 142.239 94.036C138.428 94.362 133.451 95.721 127.321 98.129C125.637 99.339 123.716 100.551 121.56 101.762L121.589 102.131C121.722 102.117 121.929 102.043 122.165 101.88C122.417 101.851 122.564 101.969 122.579 102.205L122.948 102.013L123.126 101.999L123.14 102.161C123.155 102.353 121.826 103.402 119.137 105.278L119.344 105.662L119.167 105.677L118.724 105.514C118.739 105.647 118.547 105.736 118.177 105.765L118.192 105.928L118.62 106.459C118.487 106.474 118.281 106.415 118 106.312C117.38 106.371 116.774 106.696 116.168 107.316L116.419 106.223C117.321 102.338 117.941 98.897 118.266 95.913L118.222 95.721C117.601 95.322 116.996 94.761 116.434 94.051C116.449 93.594 116.449 93.328 116.434 93.269L116.39 93.106L116.213 93.151C114.263 96.075 110.511 101.068 104.942 108.129C100.703 113.151 98.517 115.942 98.384 116.504C96.656 118.291 95.829 119.369 95.917 119.739C95.459 120.034 95.267 120.329 95.341 120.654C95.208 120.684 95.12 120.64 95.091 120.507C94.351 121.703 93.259 122.471 91.796 122.811L90.26 123.165C90.053 123.21 89.95 123.357 89.964 123.609L90.009 123.801L90.585 123.668L90.629 123.83L89.329 124.332L87.025 124.864L85.814 124.938C85.637 125.115 86.774 124.923 86.331 125.027L84.824 125.381C83.908 125.588 83.406 125.514 83.318 125.145L83.14 125.189C83.17 125.352 83.185 125.47 83.155 125.573L83.067 125.204L81.855 125.484C81.767 124.923 80.127 122.885 76.951 119.369C76.892 118.69 78.015 117.7 80.304 116.415L86.774 110.728C88.222 108.867 89.078 105.883 89.359 101.777L89.27 100.817C89.02 97.922 86.922 95.587 82.978 93.786C80.644 92.206 76.449 91.363 70.393 91.23C65.371 91.659 58.813 93.446 50.747 96.563C48.532 98.173 46.006 99.768 43.17 101.349L43.214 101.851C43.406 101.836 43.657 101.733 43.968 101.555C44.292 101.526 44.47 101.674 44.499 101.969L45.001 101.688L45.253 101.674L45.267 101.91C45.282 102.146 43.524 103.52 39.964 106.031L40.245 106.474L39.995 106.489L39.448 106.297C39.462 106.445 39.211 106.548 38.694 106.592L38.724 106.858L39.314 107.508C39.123 107.523 38.857 107.464 38.517 107.346C37.365 107.449 36.242 108.276 35.134 109.842L35.415 110.285C36.375 109.399 36.937 108.956 37.099 108.941L37.159 109.665C36.996 109.679 36.745 109.783 36.405 109.96L37.01 110.876C38.154 109.64 39.4496 108.553 40.866 107.641C41.56 107.818 41.929 108.04 41.944 108.276L42.476 108.232C46.286 105.411 50.053 103.372 53.79 102.117L53.835 102.619C53.14 103.653 52.668 104.185 52.416 104.214C52.446 104.569 52.564 104.879 52.786 105.145C52.845 105.78 51.146 110.064 47.705 117.981C39.89 136.386 33.332 150.004 28 158.808C28.015 158.985 28.118 159.222 28.31 159.517C29.625 159.207 30.452 158.882 30.807 158.572L31.087 158.542L31.131 159.044L31.619 159L32.121 158.719C32.136 158.867 32.298 158.941 32.638 158.911L32.682 159.414C32.727 159.901 32.446 160.64 31.855 161.659C31.323 162.264 30.747 163.535 30.142 165.47L30.157 165.706L30.644 165.662C32.771 163.284 34.381 160.95 35.489 158.675C41.693 156.858 46.419 155.071 49.699 153.313C52.993 153.032 55.504 152.161 57.217 150.728L57.187 150.462L55.947 150.832L55.667 150.861L55.637 150.595C58.059 150.226 59.728 149.694 60.659 148.956C65.371 145.322 68.931 142.752 71.339 141.23C76.287 137.597 79.507 134.052 80.969 130.61C81.235 130.551 81.501 130.492 81.796 130.418C82.49 130.388 82.874 130.374 82.978 130.344C82.948 130.211 83.008 130.137 83.14 130.108C84.248 129.99 83.716 130.182 84.425 130.019L86.287 129.591L86.597 129.517L86.449 129.606C86.656 129.635 86.877 129.62 87.129 129.561L87.261 130.108L78.798 143.564L76.922 145.913L76.006 148.985L76.183 148.941L77.099 148.557L76.803 149.753L76.893 150.108L77.143 150.418C77.025 150.448 76.981 150.521 77.01 150.654L77.055 150.846L77.439 150.758C78 150.27 78.236 149.827 78.148 149.428C78.753 149.532 79.152 149.576 79.358 149.517L79.403 149.709C79.034 149.798 78.842 150.093 78.813 150.595L78.857 150.787L79.064 150.743C82.136 147.39 89.669 135.913 95.711 128.129C95.519 127.287 98.665 126.12 105.164 124.613L105.371 124.569C105.607 125.588 105.105 128.055 103.864 131.969C103.066 134.332 102.682 135.632 102.742 135.839C101.708 138.985 101.22 140.684 101.279 140.95L98.975 148.498C97.483 152.368 96.345 156.43 95.548 160.713C95.681 160.684 95.888 160.699 96.183 160.773L96.508 160.492C96.538 160.625 96.626 160.669 96.759 160.64L96.626 160.093L97.631 160.064C97.926 159.99 98.177 159.62 98.384 158.941C98.34 157.922 98.546 157.375 99.004 157.257C99.624 154.835 100.009 153.623 100.142 153.579C100.718 151.171 101.146 149.798 101.427 149.458C102.298 146.326 102.934 144.716 103.347 144.613L103.436 144.997L102.801 146.637C101.693 151.555 100.57 155.44 99.433 158.291L99.758 159.709L99.965 159.665C102.712 153.756 106.671 142.058 111.826 124.569C111.973 123.032 112.712 121.836 114.027 120.994L113.731 120.684L113.687 120.521C114.278 120.388 114.691 120.152 114.928 119.827C114.898 119.694 114.381 119.502 113.377 119.236L115.947 108.217C116.508 107.715 116.833 107.449 116.936 107.449L116.981 108.01C116.848 108.025 116.641 108.099 116.405 108.261L116.892 108.956C117.753 108.015 118.725 107.182 119.787 106.474C120.319 106.622 120.585 106.799 120.614 106.976L120.999 106.947C123.923 104.805 126.789 103.269 129.61 102.338L129.64 102.708C129.123 103.49 128.768 103.889 128.576 103.904C128.606 104.17 128.679 104.406 128.812 104.613C128.857 105.1 127.586 108.35 124.987 114.377C119.049 128.335 114.071 138.66 110.024 145.366C110.038 145.499 110.127 145.677 110.29 145.913C111.279 145.677 111.914 145.425 112.165 145.189L112.343 145.174L112.372 145.544L112.786 145.514L113.155 145.322C113.17 145.425 113.303 145.47 113.554 145.455L113.583 145.854C113.613 146.208 113.406 146.77 112.948 147.538C112.52 147.996 112.077 148.956 111.604 150.418L111.619 150.61L112.003 150.581C113.613 148.778 114.839 147.006 115.681 145.263C120.393 143.874 123.982 142.53 126.464 141.201C128.99 140.979 130.895 140.329 132.195 139.236L132.18 139.044L131.22 139.325L131.013 139.34L130.999 139.148C132.83 138.882 134.115 138.468 134.809 137.922C138.384 135.174 141.087 133.21 142.919 132.058C148.62 127.907 151.279 123.919 150.954 120.093ZM149.979 120.344L150.112 121.836C149.935 122.205 149.743 122.397 149.566 122.412L149.344 119.871C149.758 120.019 149.965 120.167 149.979 120.344ZM38.133 108.321L37.882 108.335L37.838 107.877L38.857 107.789L38.871 108.025C38.709 108.04 38.458 108.129 38.133 108.321ZM33.155 158.114C32.565 157.848 32.032 157.744 31.575 157.789L31.515 157.065C31.486 156.784 31.648 156.592 32.003 156.518C32.328 156.489 32.52 156.725 32.55 157.198C33.406 156.149 33.879 155.617 33.968 155.603L34.514 155.824C34.337 157.301 33.879 158.055 33.155 158.114ZM86.345 102.471C86.095 102.501 85.592 101.718 84.868 100.167L84.824 99.709C85.297 99.665 85.784 100.433 86.301 102.013L86.345 102.471ZM85.637 96.961L85.43 97.449L78.207 94.436C83.022 94.598 85.504 95.439 85.637 96.961ZM55.134 123.151L54.115 123.239L54.071 122.781L55.091 122.693L55.134 123.151ZM54.307 107.419L54.558 107.405L54.618 108.129C54.381 108.143 54.071 108.498 53.687 109.177L53.643 108.675C54.1 108.129 54.337 107.715 54.307 107.419ZM52.165 112.471L52.255 113.431L52.003 113.446L51.914 112.486L52.165 112.471ZM51.043 114.273L51.53 114.229C51.486 115.027 51.264 115.455 50.866 115.484L50.614 115.499C50.924 114.968 51.072 114.554 51.043 114.273ZM50.201 116.784L50.481 116.755L50.496 116.991L50.038 117.759L49.551 117.804L49.536 117.567C50.024 117.523 50.246 117.272 50.201 116.784ZM49.374 119.044L49.226 120.256L48.975 120.27L48.871 119.074L49.374 119.044ZM41.087 142.604C40.762 144.258 40.407 145.1 40.038 145.13L40.024 144.894C39.935 144.081 40.289 143.313 41.087 142.604ZM39.566 145.898L39.58 146.134C39.61 146.459 39.462 146.651 39.137 146.666L39.123 146.43C39.093 146.149 39.241 145.972 39.566 145.898ZM39.123 152.737L39.891 152.663L39.921 152.929C39.728 152.944 39.477 153.047 39.167 153.225L38.679 153.269C38.649 153.018 38.812 152.826 39.123 152.737ZM60.983 145.987C56.671 148.114 54.13 149.561 53.377 150.315C48.709 151.939 46.39 152.944 46.434 153.343C42.284 154.982 39.551 156.194 38.236 156.947C37.926 156.976 37.483 156.858 36.892 156.592C36.818 155.75 37.202 155.071 38.015 154.524C38.7251 154.461 39.4399 154.572 40.097 154.849C40.866 154.451 42.21 154.007 44.115 153.535L44.071 153.032L42.535 153.165C42.727 152.9 44.204 152.205 46.981 151.083L47.749 151.009L47.764 151.245C46.449 151.363 45.725 151.747 45.563 152.442C45.593 152.752 45.77 152.885 46.094 152.855C47.084 152.235 47.572 151.866 47.557 151.762C49.433 151.408 54.617 148.69 63.111 143.623L63.155 144.081C63.17 144.303 62.445 144.923 60.983 145.987ZM47.956 150.27C49.196 150.167 50.26 149.665 51.146 148.793C51.501 148.764 51.693 148.897 51.708 149.207C51.102 149.266 49.935 149.768 48.236 150.743L47.986 150.758L47.956 150.27ZM68.975 134.126L62.461 139.295C57.616 142.471 55.016 144.066 54.632 144.096C46.922 148.335 42.122 150.536 40.26 150.699L39.98 150.728C40.216 149.857 43.643 142.84 50.29 129.635C53.214 129.384 57.823 128.025 64.1 125.544L65.637 125.411C68.812 125.13 71.19 125.75 72.757 127.227L72.845 128.188C71.678 131.57 70.378 133.549 68.975 134.126ZM56.242 126.962L57.291 126.873L57.306 127.109L56.257 127.198L56.242 126.962ZM70.969 124.465L71.737 124.391C72.447 124.731 72.815 125.027 72.845 125.292L72.86 125.529C72.18 125.588 71.545 125.233 70.969 124.465ZM73.052 112.604C72.372 113.417 70.512 114.805 67.468 116.755C66.464 116.843 62.727 118.291 56.257 121.127C55.9337 120.979 55.5772 120.918 55.223 120.95L55.179 120.492C55.105 119.561 55.519 118.394 56.434 116.976C56.937 114.318 57.483 112.796 58.089 112.427L63.48 100.3C63.421 99.546 64.573 98.97 66.936 98.572L67.705 98.498L67.764 99.192C70.083 98.838 71.53 98.631 72.092 98.586C76.375 98.217 78.606 99.089 78.782 101.171L79.27 101.127L79.167 99.901L79.699 99.857C80.954 100.551 81.634 101.393 81.722 102.383C81.782 103.062 81.412 103.904 80.629 104.908C80.304 104.938 80.112 104.702 80.083 104.229L79.551 104.273L79.433 105.75C77.261 109 75.681 110.669 74.706 110.758C73.82 111.984 73.273 112.589 73.052 112.604ZM76.36 121.097C75.917 120.802 75.563 120.669 75.297 120.684L75.237 119.96L75.725 119.916L76.804 120.551C76.848 120.891 76.7 121.068 76.36 121.097ZM79.787 125.16C80.26 125.352 80.541 125.558 80.6 125.75L80.363 125.809L80.378 125.824C80.3275 125.827 80.2776 125.837 80.23 125.854L79.876 126.134L79.787 125.16ZM80.112 127.198L80.068 127.006L80.688 126.858L80.733 127.05L80.112 127.198ZM81.604 128.867C82.239 128.764 82.549 128.719 83.731 128.453L83.775 128.645L81.53 129.162C81.56 129.059 81.59 128.956 81.604 128.867ZM83.79 129.798C82.845 129.886 83.052 129.768 81.545 130.108L81.501 129.916L83.391 129.31L84.292 129.103L84.382 129.458C83.967 129.547 84.262 129.547 83.79 129.798ZM85.784 129.325C85.563 129.384 85.385 129.281 85.282 129.03L85.858 128.897C86.109 128.838 86.272 128.941 86.331 129.192L85.784 129.325ZM91.19 123.505L91.146 123.313L92.076 123.092L92.166 123.446L91.19 123.505ZM96.966 158.926C97.026 158.66 97.04 158.468 97.01 158.335L97.217 158.291C97.468 158.232 97.616 158.321 97.675 158.557L97.719 158.749L96.966 158.926ZM101.013 125.027L100.6 124.953C99.935 125.219 99.374 125.411 98.916 125.514L98.532 125.603C98.31 125.662 98.132 125.573 98.044 125.337L100.747 124.716L101.634 124.303L101.929 124.643C101.501 124.731 101.191 124.864 101.013 125.027ZM103.096 124.362L103.052 124.17C103.185 124.14 103.362 124.037 103.554 123.845L105.474 123.402L105.518 123.594C104.499 123.845 103.687 124.096 103.096 124.362ZM103.391 120.477C103.258 120.507 103.081 120.625 102.86 120.802C102.83 120.669 102.564 120.669 102.062 120.787C101.973 120.418 103.391 119.901 106.331 119.222L106.744 119.133L106.833 119.487C104.765 120.093 103.613 120.433 103.391 120.477ZM108.561 114.894C108.354 117.242 107.527 118.572 106.065 118.911L106.021 118.719L104.721 119.222L104.145 119.355C103.883 119.424 103.606 119.419 103.347 119.34L103.229 118.823C103.185 118.631 105.061 116.031 108.871 111.038L109.315 111.112C109.477 111.792 109.226 113.047 108.561 114.894ZM117.705 107.065L117.527 107.08L117.498 106.71L118.266 106.637L118.281 106.829C118.08 106.883 117.886 106.962 117.705 107.065ZM113.938 144.894C113.495 144.687 113.096 144.598 112.756 144.628L112.712 144.066C112.697 143.874 112.815 143.742 113.066 143.668C113.318 143.638 113.465 143.815 113.495 144.199C114.13 143.387 114.484 142.973 114.558 142.973L114.957 143.136C114.809 144.258 114.47 144.849 113.938 144.894ZM154.322 102.648C154.13 102.663 153.761 102.072 153.185 100.876L153.155 100.507C153.524 100.477 153.908 101.053 154.292 102.235L154.322 102.648ZM153.79 98.424L153.613 98.808L148.148 96.518C151.796 96.637 153.687 97.272 153.79 98.424ZM130.614 118.321L129.846 118.394L129.817 118.025L130.585 117.951L130.614 118.321ZM129.979 106.371L130.186 106.356L130.23 106.917C130.038 106.932 129.802 107.198 129.521 107.715L129.492 107.346C129.832 106.917 129.994 106.592 129.979 106.371ZM128.369 110.211L128.428 110.935L128.222 110.95L128.162 110.226L128.369 110.211ZM127.498 111.585L127.882 111.555C127.838 112.176 127.675 112.501 127.394 112.53L127.188 112.545C127.409 112.131 127.513 111.806 127.498 111.585ZM126.877 113.476L127.055 113.461L127.069 113.653L126.73 114.244L126.346 114.273L126.331 114.081C126.73 114.052 126.907 113.845 126.877 113.476ZM126.257 115.189L126.124 116.134L125.947 116.149L125.873 115.219L126.257 115.189ZM119.95 133.106C119.699 134.347 119.433 134.982 119.152 135.012L119.137 134.849C119.093 134.229 119.359 133.638 119.95 133.106ZM118.783 135.603L118.798 135.765C118.827 136.031 118.709 136.179 118.443 136.194L118.428 136.001C118.414 135.809 118.532 135.677 118.783 135.603ZM118.458 140.802L119.049 140.758L119.064 140.95C118.931 140.965 118.724 141.038 118.487 141.171L118.103 141.201C118.089 140.994 118.207 140.861 118.458 140.802ZM135.046 135.677C131.796 137.287 129.861 138.38 129.256 138.941C125.71 140.182 123.953 140.95 123.982 141.26C120.836 142.516 118.768 143.417 117.793 143.993C117.557 144.007 117.217 143.919 116.774 143.712C116.715 143.077 117.01 142.56 117.631 142.176C118.169 142.125 118.711 142.206 119.211 142.412C119.802 142.117 120.821 141.792 122.269 141.422L122.239 141.053L121.043 141.157C121.191 140.95 122.328 140.418 124.44 139.561L125.031 139.517L125.046 139.679C124.041 139.768 123.48 140.064 123.362 140.595C123.377 140.832 123.524 140.95 123.775 140.92C124.514 140.433 124.869 140.152 124.869 140.064C126.287 139.812 130.216 137.744 136.671 133.874L136.7 134.244C136.7 134.391 136.154 134.864 135.046 135.677ZM125.149 138.926C126.071 138.854 126.938 138.462 127.601 137.818C127.852 137.804 128 137.907 128.015 138.143C127.572 138.188 126.7 138.557 125.386 139.266L125.179 139.281L125.149 138.926ZM141.131 126.651L136.213 130.61C132.535 133.018 130.541 134.229 130.23 134.258C124.381 137.479 120.747 139.148 119.315 139.266L119.108 139.281C119.285 138.616 121.9 133.284 126.951 123.269C129.152 123.077 132.638 122.028 137.424 120.137L138.62 120.034C141.028 119.827 142.83 120.3 144.012 121.437L144.071 122.161C143.17 124.702 142.195 126.193 141.131 126.651ZM131.471 121.216L132.239 121.142L132.254 121.334L131.486 121.408L131.471 121.216ZM142.653 119.31L143.244 119.266C143.79 119.532 144.071 119.768 144.086 119.96L144.1 120.123C143.583 120.167 143.096 119.901 142.653 119.31ZM144.204 110.315C143.687 110.935 142.284 111.999 139.994 113.476C139.226 113.549 136.39 114.643 131.486 116.77C131.235 116.682 130.968 116.646 130.703 116.666L130.674 116.297C130.614 115.588 130.925 114.702 131.604 113.623C131.988 111.585 132.417 110.448 132.86 110.182L136.981 100.965C136.936 100.418 137.808 99.975 139.58 99.635L140.171 99.591L140.216 100.152C141.959 99.872 143.052 99.709 143.495 99.665C146.744 99.384 148.443 100.034 148.576 101.629L148.96 101.6L148.886 100.713L149.27 100.684C150.216 101.201 150.718 101.821 150.777 102.56C150.821 103.092 150.555 103.742 149.994 104.495C149.743 104.524 149.595 104.347 149.566 103.963L149.182 103.993L149.064 105.1C147.424 107.597 146.227 108.882 145.474 108.941C144.809 109.842 144.396 110.3 144.204 110.315ZM145.932 116.459L145.888 115.898L146.272 115.869L147.099 116.371C147.114 116.607 146.996 116.74 146.744 116.77C146.39 116.548 146.124 116.445 145.932 116.459ZM77.172 152.338L76.789 152.427L76.464 152.708C76.523 152.944 76.671 153.032 76.922 152.973C77.172 152.914 77.276 152.767 77.217 152.53L77.172 152.338ZM75.71 149.428L75.755 149.62C76.005 149.561 76.109 149.414 76.05 149.177L76.006 148.985C75.77 149.044 75.666 149.192 75.71 149.428ZM86.168 129.783L86.449 129.606C86.3983 129.605 86.3482 129.595 86.301 129.576C86.198 129.606 86.154 129.679 86.168 129.783ZM86.109 124.687L86.552 124.583L86.464 124.199L86.021 124.303L86.109 124.687ZM190.496 139.606L189.492 139.487L189.315 139.871L189.329 140.064L195.312 139.561L195.282 139.192L190.496 139.606ZM195.962 139.148L195.991 139.517H196.05L196.021 139.148H195.962ZM221.058 135.869L221.087 136.238L221.737 136.356L221.708 135.987L221.058 135.869ZM220.142 135.942C215.651 136.947 215.09 136.77 214.145 136.843L214.174 137.213L214.588 137.183L214.809 137.168L214.75 137.124L215.238 136.932C219.684 136.445 220.201 136.622 220.157 136.12L220.142 135.942ZM193.185 129.414L192.786 129.281C192.461 130.152 192.298 130.669 192.313 130.817L192.328 130.979C192.638 130.965 192.919 130.433 193.185 129.414ZM187.778 126.504L187.764 126.312L187.557 126.326L187.188 126.563L187.394 126.917C187.675 126.888 187.808 126.755 187.778 126.504ZM199.521 138.645L199.492 138.276L199.374 138.291L199.403 138.66L199.521 138.645ZM223.894 133.151L224.174 133.121C224.337 133.106 224.411 132.973 224.396 132.737L224.233 132.383C223.214 132.471 222.742 132.516 221.914 132.973L221.9 132.781L220.674 132.9C220.644 132.53 220.541 132.338 220.378 132.353L219.743 132.412C219.004 132.471 218.65 132.442 218.281 132.722C218.266 132.589 218.222 132.53 218.148 132.53L217.439 132.589L217.025 132.826C217.01 132.693 216.966 132.634 216.892 132.634L216.641 132.855L216.626 132.663L215.637 132.589L215.4 132.604L215.43 132.973L215.932 133.106L216.405 133.077C216.569 133.176 216.761 133.218 216.951 133.195L217.365 132.988L217.38 133.151C215.061 133.727 215.075 133.623 213.48 133.889C213.303 133.771 213.17 133.712 213.081 133.727L213.052 133.756C212.874 133.742 212.771 133.623 212.756 133.431L213.583 133.328C213.643 133.328 213.687 133.387 214.145 133.476C214.809 133.151 214.839 133.018 215.194 132.988L215.164 132.619C212.889 133.062 213.805 132.767 210.954 133.018L210.821 133.032L210.792 132.663C214.455 132.22 213.229 132.471 214.484 132.117C214.499 132.25 214.544 132.309 214.617 132.309C214.752 132.171 214.929 132.083 215.12 132.058L215.371 132.043C216.656 131.939 217.084 132.191 219.625 131.482L219.64 131.644L220.053 131.437L220.437 131.408C220.408 131.038 220.969 130.979 221.161 130.965L221.131 130.566C216.671 131.467 215.504 131.216 214.263 131.57L214.248 131.408C213.081 131.614 213.037 131.526 212.742 131.541C212.653 131.555 212.52 131.629 212.372 131.777C212.357 131.644 212.313 131.585 212.225 131.585C212.18 131.585 212.165 131.6 212.151 131.6L208.369 132.22C208.355 132.117 208.31 132.058 208.222 132.072C206.257 132.486 206.789 132.56 204.16 132.796C204.041 132.811 203.879 132.87 203.672 133.003C203.657 132.9 203.598 132.84 203.465 132.855L201.855 132.988L200.777 133.254C200.762 133.151 200.703 133.092 200.57 133.106C199.965 133.269 199.433 133.372 199.004 133.402H198.975C198.709 133.431 199.108 133.328 198.901 133.239L198.576 133.431C198.103 133.476 198.355 133.402 196.73 133.417C193.879 133.771 194.189 133.815 193.879 133.83L192.815 133.756C192.83 133.86 192.771 133.934 192.653 133.934C191.442 133.771 190.821 133.579 190.807 133.357C190.969 132.205 191.25 131.614 191.648 131.585L191.855 131.57L191.678 131.954L191.885 131.939C192.269 131.733 192.446 131.541 192.431 131.363L192.402 130.965L192.018 130.994L191.988 130.625C191.956 130.372 191.997 130.116 192.106 129.886L192.978 128.483L193.007 128.852L193.421 128.823L193.391 128.453L193.155 128.114C193.465 127.848 193.702 127.7 193.894 127.685L193.879 127.493L193.318 127.538L193.273 126.976C194.396 124.643 194.928 123.284 194.898 122.9L195.297 123.062C195.548 123.047 195.666 122.9 195.651 122.634L195.267 122.663L195.253 122.501C195.223 122.22 195.282 121.954 195.4 121.718C196.006 121.083 196.287 120.448 196.227 119.783C196.346 119.768 196.405 119.827 196.42 119.96C196.936 119.665 197.335 118.882 197.631 117.582C198.547 115.928 199.846 112.619 201.545 107.671C204.795 98.926 204.662 97.996 205.12 95.928L204.736 95.958C204.765 96.223 204.706 96.474 204.588 96.71C204.322 96.607 204.115 96.548 203.968 96.563L203.953 96.4C203.894 95.647 204.204 94.746 204.913 93.682L205.09 93.668L205.415 94.938L205.799 94.908C205.784 94.82 205.888 94.318 206.095 93.387C206.08 93.195 205.932 93.077 205.637 93.062L205.267 93.298C205.238 93.032 205.253 92.338 205.297 91.23L205.105 91.245C204.78 90.92 204.617 90.655 204.603 90.433L202.49 90.64C202.476 90.492 202.402 90.27 202.254 89.99C202.239 89.798 202.712 89.606 203.687 89.414L204.115 89.576L204.514 89.34C204.529 89.473 204.603 89.532 204.75 89.517L205.149 89.281C205.164 89.414 205.238 89.473 205.386 89.458L205.578 89.443L205.548 89.015C205.253 89.045 204.47 89.045 203.229 89L202.83 89.266L202.815 89.029C192.904 89.842 187.276 90.299 185.932 90.433C185.755 90.448 185.061 90.433 183.835 90.403C183.849 90.566 183.702 90.654 183.406 90.683L182.978 90.492L181.53 90.862C181.191 90.891 180.614 90.876 179.817 90.787C179.583 90.9695 179.3 91.0775 179.004 91.097C178.827 91.112 181.117 90.979 183.244 90.832C183.022 91.009 182.682 91.112 182.21 91.157C181.885 91.187 181.604 91.142 181.368 91.009C181.043 91.157 179.994 91.393 178.236 91.747L177.808 91.585L170.895 92.648C170.629 92.516 170.319 92.471 169.965 92.501C169.595 92.531 168.975 92.663 168.118 92.9L164.78 94.288L165.031 94.702C165.194 94.687 165.43 94.598 165.71 94.436L166.892 94.539L166.744 95.647C165.651 96.134 165.016 96.858 164.839 97.774C163.199 98.498 162.387 99.014 162.387 99.325L162.402 99.517L162.653 99.502L163.096 99.266L163.613 99.886L163.687 100.743C163.716 101.009 160.954 106.814 155.43 118.158C150.644 129.089 148.133 135.071 147.897 136.149C146.257 136.607 145.312 137.272 145.031 138.158C145.061 138.439 145.548 138.631 146.493 138.705L146.538 139.133L146.109 139.842L146.183 140.699C146.227 141.142 147.424 141.482 149.773 141.718C149.758 141.57 149.832 141.482 149.994 141.467C150.038 141.999 149.891 143.032 149.551 144.569L149.802 144.554C150.777 143.225 151.235 142.309 151.191 141.806L151.397 141.792C151.634 141.777 151.885 142.043 152.18 142.619C151.885 142.737 150.851 145.086 149.078 149.679L149.329 150.093L149.58 150.078C151.752 144.583 153.111 141.541 153.672 140.965C156.523 140.713 161.456 140.211 168.458 139.458L168.901 139.192C168.916 139.34 169.004 139.414 169.167 139.399L169.625 139.355L170.068 139.089C170.083 139.236 170.171 139.31 170.334 139.295L175.637 138.838C177.04 138.719 177.705 138.291 177.646 137.567C177.631 137.375 178.458 137.154 180.127 136.917C180.29 136.903 180.526 136.947 180.851 137.05C180.836 136.917 181.678 136.784 183.362 136.637C183.406 135.75 183.687 135.278 184.189 135.233L184.145 134.805C183.672 134.849 183.14 134.968 182.52 135.174C181.412 135.115 180.703 135.027 180.408 134.923C180.112 135.086 179.891 135.174 179.728 135.189L176.035 135.307L175.592 135.544C175.578 135.411 175.489 135.352 175.326 135.366L175.12 135.381L174.647 135.617C174.632 135.484 174.248 135.381 173.48 135.278L173.007 135.558L172.092 135.632L172.077 135.396C176.833 134.879 179.182 134.229 179.123 133.461C179.433 133.431 179.595 133.579 179.625 133.889L181.013 133.535L180.969 133.106L169.58 133.417C169.595 133.564 169.521 133.653 169.359 133.668L167.97 133.549C167.616 133.579 167.321 133.682 167.084 133.86L166.567 133.668C165.134 133.786 164.071 133.963 163.362 134.185C162.387 134.111 161.309 134.126 160.112 134.229L157.557 134.451L156.375 134.318C156.316 133.564 157.778 129.857 160.792 123.21C161.663 120.965 162.461 119.561 163.229 119.03C163.391 119.015 163.628 119.074 163.953 119.207L165.77 118.586L166.7 118.734C168.266 118.601 170.083 118.158 172.165 117.39C172.682 117.346 173.066 117.375 173.347 117.493L174.736 117.168L178.871 116.814C180.629 116.666 182.535 116.282 184.603 115.647L184.558 115.219C183.79 115.292 183.391 115.16 183.362 114.849C183.318 114.273 182.756 114.037 181.678 114.126L181.634 113.697L182.771 113.372L185.755 113.121L185.71 112.693C185.592 112.708 184.987 112.693 183.864 112.648L183.82 112.191L184.972 112.087C185.282 112.058 185.415 111.91 185.386 111.614C183.835 111.659 183.052 111.585 183.037 111.378C172.225 111.91 166.804 112.013 166.774 111.674C166.612 111.688 166.39 111.792 166.095 111.969L165.814 111.526C168.679 105.44 170.363 102.368 170.851 102.323C170.866 102.56 170.747 102.944 170.496 103.461L170.511 103.653L170.969 103.609C172.106 100.891 173.066 99.487 173.864 99.429C177.261 99.133 173.391 98.911 180.659 97.774C180.954 97.907 181.161 97.966 181.309 97.951C184.16 97.375 188.133 96.77 193.229 96.149L193.199 95.721L190.482 95.971L190.452 95.544C190.748 95.5249 191.031 95.4168 191.264 95.234L191.279 95.47C191.427 95.455 191.634 95.352 191.9 95.174C192.372 95.13 192.727 95.174 192.978 95.307C193.923 95.057 194.691 94.908 195.253 94.849L196.951 94.687C197.365 94.421 197.557 94.185 197.542 93.963L197.527 93.771C197.099 93.815 196.612 93.786 196.035 93.682C196.021 93.446 196.139 93.284 196.42 93.21L199.581 92.914L201.028 92.545C201.043 92.707 201.117 92.767 201.235 92.767C201.383 92.752 201.589 92.648 201.855 92.471C201.929 92.486 202.018 92.486 202.092 92.501C201.9 92.9 201.678 93.476 201.456 94.229L201.043 94.259C201.02 93.9935 200.94 93.7361 200.807 93.505L200.6 93.52C196.759 104.214 195.046 109.192 191.501 117.405C190.851 119.502 190.304 120.669 189.832 120.92C189.846 121.157 189.994 121.275 190.245 121.245C190.334 122.279 190.097 123.298 189.521 124.303C187.882 129.03 186.789 131.614 186.227 132.087L186.597 134.318C186.612 134.554 186.493 134.687 186.242 134.716L185.858 134.746C185.799 134.126 185.578 133.83 185.179 133.874L184.972 133.889C184.47 134.672 184.086 135.573 183.835 136.622L184.219 136.592C184.736 136.253 184.972 135.854 184.928 135.396L185.696 135.322L186.139 135.484C185.784 136.046 185.622 136.489 185.651 136.829L185.858 137.183L185.356 138.365L185.371 138.557C185.814 138.513 186.301 138.66 186.818 138.97C187.173 138.941 187.557 138.778 187.985 138.498C188.428 138.453 190.083 138.439 192.934 138.439L194.366 137.951C196.109 137.936 196.39 137.981 197.897 137.848L198.517 137.789L198.842 137.567L198.857 137.759C200.437 137.626 200.541 137.73 201.781 137.877L201.796 138.069L200.925 138.143L200.954 138.513C201.22 138.483 201.456 138.409 201.648 138.247C201.87 138.232 202.003 138.35 202.018 138.616C201.61 138.657 201.208 138.746 200.821 138.882L200.437 138.749C199.832 138.911 199.965 138.956 199.551 138.985L198.945 138.867C198.96 138.97 198.901 139.044 198.798 139.044C198.812 139.281 198.945 139.399 199.167 139.384L199.787 139.325L203.022 139.044L204.248 138.778C204.263 138.882 204.307 138.941 204.411 138.926L205.001 138.705L206.109 138.616C206.966 138.542 206.951 138.483 208.812 138.188C208.798 138.069 208.842 138.025 208.931 138.01L208.945 138.173C211.973 137.656 212.165 137.626 212.653 137.464L212.697 137.552C213.451 137.375 213.022 137.419 213.229 137.272C213.244 137.405 213.288 137.464 213.362 137.464L213.894 137.419L213.864 137.021L212.786 137.006L212.771 136.976C212.727 136.991 212.697 136.991 212.653 137.006H212.505V137.035C211.781 137.183 211.767 137.08 211.294 137.124L208.591 137.272L208.576 137.08L210.083 136.873L210.629 136.829L210.939 136.607L210.954 136.799C213.081 136.622 213.835 137.154 223.672 135.056C224.204 135.012 224.16 134.569 224.499 133.653C224.319 133.665 224.139 133.624 223.982 133.535C223.17 133.845 222.742 133.697 221.176 133.948C221.043 133.963 220.939 133.845 220.895 133.609L220.88 133.446L222.387 133.49C222.668 133.461 223.214 133.417 224.027 132.959C224.027 133.092 223.716 133.165 223.894 133.151ZM151.161 134.318L150.467 134.377C150.437 134.096 150.806 133.032 151.575 131.216L152.032 131.171C152.047 131.6 151.767 132.648 151.161 134.318ZM152.003 130.95L151.988 130.758C151.973 130.521 152.121 130.359 152.446 130.285L152.461 130.477C152.476 130.758 152.328 130.92 152.003 130.95ZM161.235 138.084L161.25 138.276L160.097 138.38L160.083 138.188L161.235 138.084ZM159.846 137.966C159.861 138.202 159.507 138.468 158.739 138.734L157.321 138.631L156.863 138.675L156.818 138.247L159.846 137.966ZM169.182 94.997L168.487 95.057L168.473 94.82C168.458 94.584 168.591 94.421 168.886 94.347L169.137 94.332L169.61 94.524C169.625 94.805 169.492 94.968 169.182 94.997ZM179.743 92.929L179.965 92.914L179.994 93.343L179.359 93.402C179.344 93.165 179.462 93.003 179.743 92.929ZM177.084 93.859L176.035 93.742L176.021 93.549C177.394 93.431 177.852 93.284 178.694 93.047C178.709 93.21 178.857 93.269 179.123 93.239L179.152 93.668L178.739 93.712C178.414 93.742 178.133 93.697 177.897 93.564C177.654 93.7269 177.375 93.8275 177.084 93.859ZM178.399 97.685L178.384 97.493L180.083 97.331L180.097 97.523L178.399 97.685ZM180.216 96.208L180.201 95.972L181.028 95.898L181.043 96.134L180.216 96.208ZM180.408 93.313L180.186 93.328L180.378 92.87L182.269 92.693L182.284 92.929C181.796 92.973 181.161 93.106 180.408 93.313ZM181.368 97.39L181.338 96.962L182.165 96.888C182.446 96.858 182.594 96.991 182.609 97.287L181.368 97.39ZM186.375 90.566L185.312 90.861L185.12 90.876C184.617 90.92 183.968 90.906 183.199 90.832C184.573 90.743 185.888 90.64 186.375 90.566ZM185.238 95.293L185.253 95.484L183.79 95.617L183.775 95.425L185.238 95.293ZM187.631 96.43C187.616 96.253 187.335 96.134 186.759 96.075L185.297 96.489L184.174 96.533C183.923 96.356 183.79 96.238 183.775 96.149L185.075 96.223L188 95.75L189.492 95.81L189.507 96.046C188.869 96.1017 188.24 96.2306 187.631 96.43ZM202.682 92.545C202.86 92.56 202.978 92.56 203.022 92.56C203.528 92.0589 204.125 91.6579 204.78 91.378C204.248 93.712 203.421 95.44 202.284 96.563L201.456 96.061C202.151 94.303 202.564 93.136 202.682 92.545ZM200.142 96.903L200.349 96.888C200.068 97.419 199.817 97.7 199.61 97.715L199.566 97.154C199.699 97.154 199.891 97.065 200.142 96.903ZM198.502 100.817C198.901 99.222 199.285 98.321 199.64 98.084L199.654 98.276C199.448 99.753 199.123 100.536 198.694 100.595L198.768 101.526C198.414 102.028 198.251 102.412 198.266 102.708L198.059 102.722L197.941 101.437C198.177 101.408 198.369 101.201 198.502 100.817ZM197.867 102.944C197.882 103.165 197.734 103.682 197.439 104.48L197.232 104.495L197.188 103.934C197.468 103.284 197.705 102.959 197.867 102.944ZM185.947 137.538L185.932 137.375L186.316 137.346L186.36 137.907C186.154 137.922 186.006 137.804 185.947 137.538ZM202.978 137.981C202.963 137.848 202.904 137.789 202.771 137.804L201.811 137.892L201.796 137.7H201.885L204.16 137.508L204.174 137.7C203.51 137.73 203.111 137.833 202.978 137.981ZM201.84 137.508C201.929 137.552 201.885 137.597 201.84 137.626C201.796 137.612 201.737 137.567 201.84 137.508ZM201.959 134.849L200.688 134.953L200.674 134.761L201.826 134.657L202.83 134.406C202.845 134.524 202.904 134.569 203.037 134.554C204.233 134.347 204.115 134.288 204.691 134.244C204.883 134.229 205.001 134.347 205.016 134.583L201.959 134.849ZM206.405 134.465C205.696 134.391 205.651 134.332 205.149 134.377L205.134 134.214L206.272 134.111L206.287 134.273C206.168 134.288 206.597 134.318 206.405 134.465ZM206.493 134.258L206.479 134.096L207.099 134.037L207.114 134.199L206.493 134.258ZM207.867 134.14L207.852 133.978C207.956 133.963 208.103 133.889 208.295 133.742C208.606 133.712 208.768 133.919 208.798 134.155L207.867 134.14ZM209.625 133.919L209.61 133.727L210.363 133.668L210.378 133.86L209.625 133.919ZM210.674 133.83C210.659 133.609 210.747 133.476 210.939 133.446L211.191 133.771C211.176 133.668 211.22 133.609 211.309 133.594L211.501 133.948L210.674 133.83ZM225.208 132.117L225.223 132.102V132.087C225.223 132.087 225.208 132.102 225.208 132.117ZM225.474 131.925C225.592 131.851 225.651 131.777 225.371 131.733C225.238 131.88 225.518 131.925 225.223 131.939L225.238 132.072C225.267 132.043 225.341 131.999 225.4 131.954L225.238 132.087V132.102L224.928 132.501L225.548 132.279H225.622L225.592 131.91L225.474 131.925ZM226.552 132.767L226.434 132.781L226.464 133.151L227.335 133.077C227.321 132.84 226.744 132.767 226.552 132.767Z" fill="#F9DC3E"/>
</g>
<defs>
<clipPath id="clip0_8_3">
<rect width="256" height="256" fill="white"/>
</clipPath>
</defs>
</svg>
