<svg width="415" height="326" viewBox="0 0 415 326" fill="none" xmlns="http://www.w3.org/2000/svg">
<path d="M399.938 1.68957e-05H294.028C271.3 1.68957e-05 249.081 6.52677 229.964 18.8397L207.375 33.3281L184.786 18.8397C165.688 6.52914 143.444 -0.0121333 120.722 1.68957e-05H14.8125C6.61934 1.68957e-05 0 6.61935 0 14.8125V277.734C0 285.928 6.61934 292.547 14.8125 292.547H120.722C143.45 292.547 165.669 299.074 184.786 311.387L205.338 324.625C205.94 324.996 206.634 325.227 207.329 325.227C208.023 325.227 208.717 325.042 209.319 324.625L229.871 311.387C249.035 299.074 271.3 292.547 294.028 292.547H399.938C408.131 292.547 414.75 285.928 414.75 277.734V14.8125C414.75 6.61935 408.131 1.68957e-05 399.938 1.68957e-05ZM157.383 181.685C157.383 183.582 155.902 185.156 154.096 185.156H68.0912C66.2859 185.156 64.8047 183.582 64.8047 181.685V160.854C64.8047 158.957 66.2859 157.383 68.0912 157.383H154.05C155.855 157.383 157.337 158.957 157.337 160.854V181.685H157.383ZM157.383 116.88C157.383 118.778 155.902 120.352 154.096 120.352H68.0912C66.2859 120.352 64.8047 118.778 64.8047 116.88V96.0498C64.8047 94.152 66.2859 92.5781 68.0912 92.5781H154.05C155.855 92.5781 157.337 94.152 157.337 96.0498V116.88H157.383ZM349.945 181.685C349.945 183.582 348.464 185.156 346.659 185.156H260.654C258.848 185.156 257.367 183.582 257.367 181.685V160.854C257.367 158.957 258.848 157.383 260.654 157.383H346.612C348.418 157.383 349.899 158.957 349.899 160.854V181.685H349.945ZM349.945 116.88C349.945 118.778 348.464 120.352 346.659 120.352H260.654C258.848 120.352 257.367 118.778 257.367 116.88V96.0498C257.367 94.152 258.848 92.5781 260.654 92.5781H346.612C348.418 92.5781 349.899 94.152 349.899 96.0498V116.88H349.945Z" fill="#d3d3d3"/>
</svg>
