<svg width="100" height="100" viewBox="0 0 100 100" fill="none" xmlns="http://www.w3.org/2000/svg">
<g clip-path="url(#clip0_16_55)">
<path d="M50 0C22.3 0 0 22.3 0 50C0 77.7 22.3 100 50 100C77.7 100 100 77.7 100 50C100 22.3 77.7 0 50 0ZM61.6667 18.0542C62.2083 18.0375 62.7 18.6208 62.3792 19.2125L49.6958 42.4625C49.6317 42.581 49.5994 42.7142 49.6021 42.849C49.6048 42.9837 49.6424 43.1155 49.7113 43.2314C49.7801 43.3472 49.8778 43.4433 49.9949 43.5101C50.112 43.5769 50.2444 43.6122 50.3792 43.6125H72.2958C73.0042 43.6125 73.3458 44.475 72.8292 44.9583L34.4125 80.8125C33.725 81.4542 32.7042 80.55 33.2542 79.7875L51.4375 54.7C51.5208 54.5838 51.5706 54.447 51.5813 54.3044C51.5921 54.1619 51.5634 54.0191 51.4985 53.8918C51.4335 53.7644 51.3347 53.6574 51.213 53.5824C51.0913 53.5074 50.9513 53.4674 50.8083 53.4667H27.6125C27.4582 53.4663 27.3074 53.4201 27.1794 53.3339C27.0513 53.2478 26.9518 53.1255 26.8933 52.9827C26.8348 52.8399 26.8201 52.6829 26.851 52.5317C26.8818 52.3805 26.9569 52.2418 27.0667 52.1333L61.15 18.2875C61.2866 18.1449 61.4693 18.0612 61.6667 18.0542Z" fill="#41C7BF"/>
</g>
<defs>
<clipPath id="clip0_16_55">
<rect width="100" height="100" fill="white"/>
</clipPath>
</defs>
</svg>
