<svg width="20" height="20" viewBox="0 0 20 20" fill="none" xmlns="http://www.w3.org/2000/svg">
<path d="M10 0C8.02219 0 6.08879 0.58649 4.4443 1.6853C2.79981 2.78412 1.51809 4.3459 0.761209 6.17317C0.00433284 8.00043 -0.193701 10.0111 0.192152 11.9509C0.578004 13.8907 1.53041 15.6725 2.92894 17.0711C4.32746 18.4696 6.10929 19.422 8.0491 19.8079C9.98891 20.1937 11.9996 19.9957 13.8268 19.2388C15.6541 18.4819 17.2159 17.2002 18.3147 15.5557C19.4135 13.9112 20 11.9778 20 10C20 8.68678 19.7413 7.38642 19.2388 6.17317C18.7363 4.95991 17.9997 3.85752 17.0711 2.92893C16.1425 2.00035 15.0401 1.26375 13.8268 0.761205C12.6136 0.258658 11.3132 0 10 0V0ZM10 18C8.41775 18 6.87104 17.5308 5.55544 16.6518C4.23985 15.7727 3.21447 14.5233 2.60897 13.0615C2.00347 11.5997 1.84504 9.99113 2.15372 8.43928C2.4624 6.88743 3.22433 5.46197 4.34315 4.34315C5.46197 3.22433 6.88743 2.4624 8.43928 2.15372C9.99113 1.84504 11.5997 2.00346 13.0615 2.60896C14.5233 3.21447 15.7727 4.23984 16.6518 5.55544C17.5308 6.87103 18 8.41775 18 10C18 12.1217 17.1572 14.1566 15.6569 15.6569C14.1566 17.1571 12.1217 18 10 18V18Z" fill="#F2F5F7"/>
<path d="M12.7099 7.28994C12.617 7.19621 12.5064 7.12182 12.3845 7.07105C12.2627 7.02028 12.132 6.99414 11.9999 6.99414C11.8679 6.99414 11.7372 7.02028 11.6154 7.07105C11.4935 7.12182 11.3829 7.19621 11.2899 7.28994L9.99994 8.58994L8.70994 7.28994C8.52164 7.10164 8.26624 6.99585 7.99994 6.99585C7.73364 6.99585 7.47824 7.10164 7.28994 7.28994C7.10164 7.47824 6.99585 7.73364 6.99585 7.99994C6.99585 8.26624 7.10164 8.52164 7.28994 8.70994L8.58994 9.99994L7.28994 11.2899C7.19621 11.3829 7.12182 11.4935 7.07105 11.6154C7.02028 11.7372 6.99414 11.8679 6.99414 11.9999C6.99414 12.132 7.02028 12.2627 7.07105 12.3845C7.12182 12.5064 7.19621 12.617 7.28994 12.7099C7.3829 12.8037 7.4935 12.8781 7.61536 12.9288C7.73722 12.9796 7.86793 13.0057 7.99994 13.0057C8.13195 13.0057 8.26266 12.9796 8.38452 12.9288C8.50638 12.8781 8.61698 12.8037 8.70994 12.7099L9.99994 11.4099L11.2899 12.7099C11.3829 12.8037 11.4935 12.8781 11.6154 12.9288C11.7372 12.9796 11.8679 13.0057 11.9999 13.0057C12.132 13.0057 12.2627 12.9796 12.3845 12.9288C12.5064 12.8781 12.617 12.8037 12.7099 12.7099C12.8037 12.617 12.8781 12.5064 12.9288 12.3845C12.9796 12.2627 13.0057 12.132 13.0057 11.9999C13.0057 11.8679 12.9796 11.7372 12.9288 11.6154C12.8781 11.4935 12.8037 11.3829 12.7099 11.2899L11.4099 9.99994L12.7099 8.70994C12.8037 8.61698 12.8781 8.50638 12.9288 8.38452C12.9796 8.26266 13.0057 8.13195 13.0057 7.99994C13.0057 7.86793 12.9796 7.73722 12.9288 7.61536C12.8781 7.4935 12.8037 7.3829 12.7099 7.28994V7.28994Z" fill="#F2F5F7"/>
</svg>
