<svg width="86" height="98" viewBox="0 0 86 98" fill="none" xmlns="http://www.w3.org/2000/svg">
<path d="M83.1562 22.9844L45.4219 1.26562C44.7969 0.875 43.9375 0.71875 43 0.71875C42.0625 0.71875 41.2031 0.953125 40.5781 1.26562L3.07812 23.0625C1.75 23.8437 0.8125 25.7969 0.8125 27.2812V70.7969C0.8125 71.6562 0.96875 72.6719 1.59375 73.5312L85.0312 25.0937C84.5625 24.1562 83.8594 23.4531 83.1562 22.9844Z" fill="#9B4F96"/>
<path d="M1.35938 73.4531C1.75 74.0781 2.29688 74.625 2.84375 74.9375L40.5 96.7344C41.125 97.125 41.9844 97.2812 42.9219 97.2812C43.8594 97.2812 44.7187 97.0469 45.3437 96.7344L82.8437 74.9375C84.1719 74.1562 85.1094 72.2031 85.1094 70.7188V27.2031C85.1094 26.5 85.0312 25.7188 84.6406 25.0156L1.35938 73.4531Z" fill="#68217A"/>
<path d="M59.6406 58.4531C56.3594 64.2344 50.1094 68.1406 43 68.1406C32.4531 68.1406 23.8594 59.5469 23.8594 49C23.8594 38.4531 32.4531 29.8594 43 29.8594C50.1094 29.8594 56.3594 33.7656 59.6406 39.625L69.7969 33.7656C64.4844 24.4688 54.4844 18.1406 43 18.1406C25.9688 18.1406 12.1406 31.9688 12.1406 49C12.1406 66.0312 25.9688 79.8594 43 79.8594C54.4062 79.8594 64.4062 73.6094 69.7188 64.3906L59.6406 58.4531ZM68.7812 50.7187L69.4844 47.3594H66.2031V43.6875H70.1875L71.125 38.8438H74.9531L74.0156 43.6094H76.9844L77.9219 38.8438H81.6719L80.7344 43.6094H82.6094V47.2812H80.0312L79.3281 50.6406H82.6094V54.3125H78.625L77.6875 59H73.8594L74.7969 54.3125H71.8281L70.8906 59H67.1406L68.0781 54.3125H66.2031V50.6406H68.7812V50.7187ZM72.5312 50.7187H75.5L76.2031 47.3594H73.2344L72.5312 50.7187Z" fill="white"/>
</svg>
