<svg width="28" height="28" viewBox="0 0 28 28" fill="none" xmlns="http://www.w3.org/2000/svg">
<path d="M14 19.6C15.4852 19.6 16.9096 19.01 17.9598 17.9598C19.01 16.9096 19.6 15.4852 19.6 14C19.6 12.5148 19.01 11.0904 17.9598 10.0402C16.9096 8.98999 15.4852 8.39999 14 8.39999V19.6Z" fill="#D0D0D0"/>
<path fill-rule="evenodd" clip-rule="evenodd" d="M14 0C6.2678 0 0 6.2678 0 14C0 21.7322 6.2678 28 14 28C21.7322 28 28 21.7322 28 14C28 6.2678 21.7322 0 14 0ZM14 2.8V8.4C12.5148 8.4 11.0904 8.99 10.0402 10.0402C8.99 11.0904 8.4 12.5148 8.4 14C8.4 15.4852 8.99 16.9096 10.0402 17.9598C11.0904 19.01 12.5148 19.6 14 19.6V25.2C16.9704 25.2 19.8192 24.02 21.9196 21.9196C24.02 19.8192 25.2 16.9704 25.2 14C25.2 11.0296 24.02 8.18081 21.9196 6.0804C19.8192 3.98 16.9704 2.8 14 2.8V2.8Z" fill="#D0D0D0"/>
</svg>
