<svg width="26" height="22" viewBox="0 0 26 22" fill="none" xmlns="http://www.w3.org/2000/svg">
<g clip-path="url(#clip0_13_321)">
<path d="M25.0345 8.60783C24.4715 8.15378 23.1814 7.98351 22.1728 8.21053C22.0556 7.0754 21.516 6.08227 20.5778 5.20254L20.0383 4.74848L19.6629 5.40119C19.1939 6.25254 18.9593 7.44443 19.0296 8.57957C19.053 8.97675 19.1703 9.68621 19.5222 10.3105C19.1939 10.5376 18.5136 10.8213 17.6223 10.8213H0.663304L0.616429 11.0484C0.452171 12.1834 0.452171 15.7306 2.37561 18.4548C3.8299 20.5263 5.98791 21.5763 8.8261 21.5763C14.9716 21.5763 19.5222 18.1425 21.6568 11.928C22.5012 11.9564 24.3073 11.928 25.2222 9.79961C25.2456 9.74285 25.2925 9.62934 25.4567 9.20378L25.5505 8.97675L25.0345 8.60783ZM14.221 0.605469H11.6409V3.44319H14.221V0.605469ZM14.221 4.01076H11.6409V6.84848H14.221V4.01065V4.01076ZM11.1717 4.01076H8.59162V6.84848H11.1717V4.01065V4.01076ZM8.12239 4.01076H5.54221V6.84848H8.12239V4.01065V4.01076ZM5.07307 7.41605H2.49289V10.2538H5.07297V7.41594L5.07307 7.41605ZM8.12239 7.41605H5.54221V10.2538H8.12239V7.41594V7.41605ZM11.1717 7.41605H8.59162V10.2538H11.1717V7.41594V7.41605ZM14.2211 7.41605H11.6408V10.2538H14.2211V7.41594V7.41605ZM17.2704 7.41605H14.6902V10.2538H17.2704V7.41594V7.41605Z" fill="#2396ED"/>
</g>
<defs>
<clipPath id="clip0_13_321">
<rect width="25" height="21" fill="white" transform="translate(0.550293 0.605469)"/>
</clipPath>
</defs>
</svg>
