<svg width="30" height="30" viewBox="0 0 30 30" fill="none" xmlns="http://www.w3.org/2000/svg">
<path d="M15 0C11.0218 0 7.20644 1.58035 4.3934 4.3934C1.58035 7.20644 0 11.0218 0 15C0 18.9782 1.58035 22.7936 4.3934 25.6066C7.20644 28.4196 11.0218 30 15 30C18.9782 30 22.7936 28.4196 25.6066 25.6066C28.4196 22.7936 30 18.9782 30 15C30 11.0218 28.4196 7.20644 25.6066 4.3934C22.7936 1.58035 18.9782 0 15 0ZM7.5 7.5H22.5C22.7681 7.5 23.0269 7.55812 23.2669 7.665L15 17.3081L6.73313 7.665C6.97393 7.55555 7.23549 7.49928 7.5 7.5ZM5.625 20.625V9.375L5.62875 9.25687L11.1263 15.6712L5.68875 21.1088C5.6458 20.9511 5.62436 20.7884 5.625 20.625ZM22.5 22.5H7.5C7.335 22.5 7.17188 22.4775 7.01625 22.4362L12.3525 17.1L15.0019 20.19L17.6512 17.1L22.9875 22.4362C22.8299 22.4792 22.6671 22.5006 22.5037 22.5H22.5ZM24.375 20.625C24.375 20.79 24.3525 20.9531 24.3112 21.1088L18.8737 15.6712L24.3713 9.25687L24.375 9.375V20.625Z" fill="#EDEDED"/>
</svg>
