<svg width="28" height="30" viewBox="0 0 28 30" fill="none" xmlns="http://www.w3.org/2000/svg">
<path fill-rule="evenodd" clip-rule="evenodd" d="M16.688 3.4522L23.1571 7.00949C23.3439 6.82129 23.5582 6.65976 23.7934 6.52991C25.135 5.79533 26.8463 6.23147 27.6256 7.50928C28.3969 8.7871 27.939 10.4168 26.5973 11.159C26.3638 11.287 26.1121 11.3825 25.8501 11.4423V18.5595C26.1093 18.6194 26.3582 18.7142 26.5893 18.841C27.939 19.5831 28.3969 21.2129 27.6176 22.4907C26.8463 23.7685 25.127 24.2046 23.7853 23.4701C23.5254 23.3281 23.2913 23.1471 23.0919 22.934L16.6622 26.4694C16.7563 26.7409 16.8042 27.0251 16.8038 27.3111C16.8038 28.7801 15.5506 29.9815 14 29.9815C12.4494 29.9815 11.1962 28.7877 11.1962 27.3111C11.1962 27.0486 11.2358 26.795 11.3096 26.5555L4.84225 22.9993C4.65753 23.1838 4.44622 23.3423 4.21465 23.4701C2.86497 24.2046 1.15369 23.7685 0.382373 22.4907C-0.38883 21.2129 0.0691227 19.5831 1.41072 18.841C1.64184 18.7142 1.89071 18.6194 2.14987 18.5594V11.4423C1.88785 11.3825 1.63623 11.287 1.40273 11.159C0.061029 10.4245 -0.396924 8.7871 0.374388 7.50928C1.1457 6.23147 2.86486 5.79533 4.20656 6.52991C4.44052 6.65907 4.65379 6.81956 4.83984 7.00647L11.3108 3.44824C11.2345 3.20167 11.1959 2.94592 11.1962 2.68887C11.1962 1.2123 12.4494 0.0185547 14 0.0185547C15.5506 0.0185547 16.8038 1.2122 16.8038 2.68887C16.8038 2.95428 16.7634 3.21043 16.688 3.4522ZM16.014 4.54824L22.4985 8.11387C22.3953 8.45762 22.3657 8.81765 22.4115 9.17252C22.4573 9.5274 22.5775 9.86988 22.7651 10.1796C23.1598 10.8336 23.8028 11.2671 24.5165 11.4361V18.5621C24.4801 18.5705 24.4439 18.5798 24.4079 18.5896L15.9387 4.6196C15.9643 4.59626 15.9894 4.57241 16.014 4.54824ZM12.0631 4.62116L3.59395 18.591C3.55733 18.5809 3.5205 18.5715 3.48348 18.5628V11.4361C4.19715 11.2671 4.84017 10.8336 5.2349 10.1796C5.42285 9.86928 5.54323 9.52608 5.58883 9.17049C5.63444 8.81489 5.60435 8.45419 5.50036 8.10991L11.983 4.54533C12.0092 4.57105 12.0358 4.59647 12.0631 4.62116ZM14.7835 5.25397L23.2506 19.2206C23.0567 19.3969 22.8904 19.5989 22.757 19.8203C22.6239 20.0404 22.5244 20.2775 22.4615 20.5243H5.53875C5.47572 20.2775 5.37614 20.0404 5.243 19.8203C5.10912 19.6004 4.94319 19.3997 4.75015 19.2241L13.219 5.2546C13.4728 5.32422 13.7358 5.35943 14 5.35918C14.272 5.35918 14.5348 5.32251 14.7835 5.25397ZM16.0735 25.5121L22.5159 21.9696C22.4966 21.9118 22.4794 21.8533 22.4642 21.7944H5.53514C5.52616 21.829 5.51646 21.8635 5.50604 21.8977L11.98 25.4576C12.2414 25.1987 12.5551 24.9929 12.9023 24.8525C13.2494 24.7121 13.6228 24.6401 14 24.6407C14.3903 24.6401 14.7765 24.7173 15.1336 24.8674C15.4907 25.0174 15.8109 25.2371 16.0735 25.5121Z" fill="#E535AB"/>
</svg>
