<svg width="72" height="98" viewBox="0 0 72 98" fill="none" xmlns="http://www.w3.org/2000/svg">
<path d="M23.2008 75.6563C23.2008 75.6563 19.4766 77.8235 25.8547 78.5547C33.5829 79.4375 37.5321 79.311 46.0461 77.7016C46.0461 77.7016 48.2891 79.1039 51.4157 80.3195C32.3227 88.4992 8.20629 79.8453 23.2008 75.6563ZM20.8664 64.9805C20.8664 64.9805 16.6883 68.0735 23.0719 68.7344C31.3274 69.5867 37.8454 69.6563 49.1297 67.4844C49.1297 67.4844 50.6868 69.0664 53.1391 69.9305C30.0594 76.6805 4.35317 70.4617 20.8664 64.9805Z" fill="#0074BD"/>
<path d="M40.5329 46.868C45.2399 52.286 39.2985 57.1571 39.2985 57.1571C39.2985 57.1571 51.243 50.9922 45.7586 43.2688C40.6344 36.0696 36.7063 32.4938 57.9735 20.1594C57.9735 20.1594 24.5899 28.4953 40.5329 46.868Z" fill="#EA2D2E"/>
<path d="M65.7836 83.5539C65.7836 83.5539 68.5407 85.8274 62.7461 87.5844C51.729 90.9219 16.8821 91.9282 7.20395 87.718C3.72661 86.2039 10.25 84.1047 12.3024 83.6617C14.4422 83.1985 15.6641 83.2828 15.6641 83.2828C11.7946 80.5586 -9.34605 88.6344 4.92739 90.9508C43.85 97.2602 75.8782 88.1094 65.7836 83.5539ZM24.9938 53.9172C24.9938 53.9172 7.27036 58.1274 18.718 59.6578C23.5524 60.3047 33.1852 60.1563 42.1641 59.4031C49.5 58.7867 56.8618 57.4703 56.8618 57.4703C56.8618 57.4703 54.2774 58.5789 52.4055 59.8555C34.404 64.5906 -0.363236 62.3852 9.64692 57.5446C18.1094 53.4516 24.9938 53.9172 24.9938 53.9172ZM56.7883 71.6883C75.086 62.1828 66.625 53.0477 60.7196 54.2781C59.2758 54.5789 58.6282 54.8406 58.6282 54.8406C58.6282 54.8406 59.1657 53.9977 60.1907 53.6352C71.8727 49.5297 80.8555 65.7469 56.4227 72.1703C56.4227 72.1703 56.7032 71.9149 56.7883 71.6883Z" fill="#0074BD"/>
<path d="M45.7586 0.239868C45.7586 0.239868 55.8899 10.3774 36.1469 25.961C20.3141 38.4656 32.5368 45.5938 36.1414 53.7414C26.8985 45.4032 20.1188 38.0617 24.6664 31.2297C31.3446 21.2031 49.8454 16.3399 45.7586 0.239868Z" fill="#EA2D2E"/>
<path d="M26.7922 97.4539C44.3516 98.5766 71.3235 96.8289 71.9618 88.5196C71.9618 88.5196 70.7344 91.6696 57.4485 94.1688C42.4594 96.9907 23.9688 96.6617 13.0055 94.8516C13.0055 94.8516 15.2516 96.7117 26.7922 97.4539Z" fill="#0074BD"/>
</svg>
