<svg width="23" height="25" viewBox="0 0 23 25" fill="none" xmlns="http://www.w3.org/2000/svg">
<path d="M21.4044 12.3412C21.4044 11.7365 21.1642 11.1565 20.7365 10.7288C20.3089 10.3012 19.7289 10.061 19.1242 10.061C19.0441 10.0609 18.9641 10.065 18.8844 10.0732L22.0169 0.834961H8.70553L11.8337 10.0653C11.7882 10.0653 11.7418 10.061 11.6954 10.061C11.1509 10.0603 10.6241 10.2546 10.2104 10.6086C9.79661 10.9626 9.52321 11.453 9.43959 11.9911C9.35597 12.5291 9.46767 13.0793 9.75447 13.5422C10.0413 14.0051 10.4842 14.3501 11.0033 14.5147C10.5182 15.3499 9.91428 16.11 9.2104 16.7713C8.29417 17.6472 7.20561 18.3228 6.01403 18.755C5.34641 18.4386 4.82427 17.8799 4.55368 17.1924C4.28308 16.505 4.28432 15.7403 4.55716 15.0537C4.62453 14.8962 4.69278 14.737 4.75753 14.5777C5.26595 14.458 5.71788 14.1674 6.0378 13.7545C6.35772 13.3416 6.52625 12.8314 6.51523 12.3092C6.50422 11.787 6.31431 11.2844 5.97726 10.8854C5.64021 10.4863 5.17643 10.2151 4.66341 10.1169C4.15039 10.0187 3.61922 10.0995 3.15865 10.3459C2.69807 10.5923 2.336 10.9893 2.13294 11.4705C1.92987 11.9517 1.89811 12.4881 2.04296 12.9899C2.18781 13.4918 2.5005 13.9287 2.92878 14.2277C2.20092 15.5475 1.64543 16.9552 1.27591 18.4163C0.966155 20.2845 1.2759 22.2663 2.89028 23.3872C6.65278 25.9956 10.7382 21.7702 15.0449 20.7088C16.6059 20.3238 18.3192 20.386 19.6938 19.5897C20.1904 19.3069 20.6187 18.9182 20.9482 18.4512C21.2777 17.9842 21.5004 17.4504 21.6004 16.8877C21.6919 16.3515 21.6746 15.8024 21.5497 15.273C21.4248 14.7436 21.1948 14.2447 20.8733 13.806C21.2163 13.396 21.404 12.8784 21.4035 12.3438L21.4044 12.3412ZM13.9765 12.3535V12.3456C13.9772 11.9532 13.8763 11.5673 13.6837 11.2254C13.4912 10.8835 13.2134 10.5972 12.8775 10.3943L15.366 5.35346L17.8598 10.4407C17.5469 10.6486 17.2904 10.9307 17.1132 11.2619C16.9359 11.5931 16.8434 11.963 16.8439 12.3386V12.3885L13.9765 12.3535Z" fill="#C63D14"/>
<path d="M21.9618 12.3411C21.9609 11.6799 21.7295 11.0397 21.3073 10.5309C20.8852 10.022 20.2988 9.67631 19.6492 9.55332L22.7939 0.27832H7.92944L11.0794 9.5717C10.5295 9.69461 10.0287 9.97857 9.64083 10.3873C9.25298 10.7961 8.9957 11.3112 8.90181 11.8668C8.80793 12.4224 8.88169 12.9934 9.1137 13.5069C9.34571 14.0204 9.72544 14.4532 10.2044 14.7499C9.80873 15.3378 9.34854 15.8796 8.83244 16.3652C8.03354 17.1295 7.09473 17.7326 6.06744 18.1414C5.58534 17.8616 5.21989 17.4178 5.03774 16.8909C4.85559 16.3641 4.86888 15.7893 5.07519 15.2714L5.11019 15.1901L5.17494 15.0369C5.75811 14.8348 6.25952 14.448 6.60323 13.9354C6.94695 13.4227 7.11424 12.812 7.07979 12.1957C7.04533 11.5795 6.811 10.9912 6.41228 10.52C6.01356 10.0489 5.47217 9.72047 4.87009 9.58455C4.26801 9.44863 3.63804 9.51261 3.07558 9.76678C2.51311 10.021 2.04879 10.4515 1.75293 10.9932C1.45706 11.5349 1.34577 12.1582 1.4359 12.7689C1.52603 13.3795 1.81268 13.9441 2.25244 14.3772C2.15794 14.5793 2.05819 14.7841 1.95581 14.9949C1.38849 16.0381 0.975842 17.1581 0.730814 18.3199C0.323939 20.7699 0.980189 22.7326 2.57794 23.8394C3.43565 24.4528 4.46437 24.7812 5.51881 24.7783C7.38431 24.7783 9.27169 23.8412 11.1188 22.9242C12.4094 22.2223 13.771 21.6597 15.1806 21.2459C15.6854 21.1217 16.2052 21.0464 16.7556 20.9668C17.8768 20.8772 18.9702 20.5718 19.9756 20.0673C20.5425 19.7435 21.0313 19.2989 21.4074 18.7651C21.7835 18.2314 22.0376 17.6215 22.1517 16.9786C22.3376 15.8864 22.1229 14.7637 21.5471 13.8172C21.8195 13.3727 21.9633 12.8615 21.9627 12.3402L21.9618 12.3411ZM20.8479 12.3411C20.8479 12.682 20.7468 13.0153 20.5574 13.2987C20.368 13.5822 20.0988 13.8031 19.7838 13.9336C19.4689 14.0641 19.1223 14.0982 18.7879 14.0317C18.4535 13.9652 18.1464 13.801 17.9053 13.5599C17.6642 13.3189 17.5001 13.0117 17.4336 12.6774C17.367 12.343 17.4012 11.9964 17.5317 11.6814C17.6621 11.3664 17.8831 11.0972 18.1665 10.9078C18.45 10.7184 18.7833 10.6173 19.1242 10.6173C19.5812 10.6178 20.0194 10.7995 20.3426 11.1227C20.6657 11.4459 20.8475 11.884 20.8479 12.3411V12.3411ZM21.2391 1.3922L18.4618 9.5822C18.3429 9.61097 18.226 9.6475 18.1118 9.69157L15.3687 4.09157L12.6168 9.65832C12.497 9.61681 12.3745 9.58348 12.2502 9.55857L9.48256 1.3922H21.2391ZM11.6954 10.6173C12.0364 10.6173 12.3696 10.7184 12.6531 10.9078C12.9366 11.0972 13.1575 11.3664 13.288 11.6814C13.4184 11.9964 13.4526 12.343 13.3861 12.6774C13.3196 13.0117 13.1554 13.3189 12.9143 13.5599C12.6732 13.801 12.3661 13.9652 12.0317 14.0317C11.6974 14.0982 11.3508 14.0641 11.0358 13.9336C10.7208 13.8031 10.4516 13.5822 10.2622 13.2987C10.0728 13.0153 9.97169 12.682 9.97169 12.3411C9.97215 11.884 10.1539 11.4459 10.4771 11.1227C10.8002 10.7995 11.2384 10.6178 11.6954 10.6173V10.6173ZM4.23869 10.6339C4.57976 10.6341 4.91312 10.7355 5.19657 10.9252C5.48002 11.1149 5.70081 11.3844 5.83102 11.6997C5.96122 12.0149 5.99497 12.3617 5.92801 12.6961C5.86104 13.0306 5.69637 13.3376 5.45482 13.5784C5.21328 13.8192 4.90573 13.983 4.57109 14.0489C4.23645 14.1149 3.88977 14.0801 3.57492 13.9489C3.26008 13.8177 2.99122 13.5961 2.80238 13.3121C2.61354 13.0281 2.5132 12.6944 2.51406 12.3533C2.51453 11.8963 2.69628 11.4581 3.01945 11.135C3.34262 10.8118 3.78079 10.63 4.23781 10.6296L4.23869 10.6339ZM21.0536 16.7887C20.9671 17.271 20.7756 17.7284 20.4927 18.1285C20.2098 18.5286 19.8423 18.8616 19.4164 19.1039C18.5328 19.533 17.5759 19.791 16.5963 19.8643C16.0433 19.9439 15.4719 20.0262 14.9128 20.1644C13.4244 20.5954 11.9869 21.186 10.6253 21.9258C7.85681 23.3004 5.46281 24.4878 3.21231 22.9259C1.56119 21.7814 1.63731 19.6639 1.82981 18.5037C2.05635 17.4478 2.43416 16.4302 2.95156 15.4823L3.18781 14.9932C3.42285 15.0872 3.66949 15.149 3.92106 15.1769C3.69836 15.9635 3.76059 16.8035 4.09677 17.5487C4.43295 18.2939 5.02148 18.8965 5.75856 19.2501L5.97294 19.3603L6.19956 19.2798C7.46367 18.8235 8.61853 18.1083 9.59019 17.1798C10.232 16.5761 10.7958 15.8944 11.2684 15.1507C11.8732 15.2427 12.4914 15.1367 13.031 14.8485C13.5705 14.5603 14.0024 14.1054 14.2622 13.5516C14.522 12.9978 14.5958 12.3749 14.4726 11.7757C14.3494 11.1766 14.0357 10.6333 13.5784 10.2271L15.3617 6.62119L17.1633 10.2962C16.6507 10.7902 16.3427 11.459 16.3006 12.1697C16.2584 12.8803 16.4852 13.5808 16.9358 14.132C17.3864 14.6831 18.0279 15.0446 18.7328 15.1445C19.4376 15.2444 20.1543 15.0754 20.7403 14.6712C21.0652 15.327 21.174 16.069 21.0509 16.7904L21.0536 16.7887Z" fill="#1A1A1A"/>
</svg>
