<svg width="24" height="24" viewBox="0 0 24 24" fill="none" xmlns="http://www.w3.org/2000/svg">
<path d="M0.800049 5.60005C0.800049 4.32701 1.30576 3.10611 2.20594 2.20594C3.10611 1.30576 4.32701 0.800049 5.60005 0.800049H18.4C19.6731 0.800049 20.894 1.30576 21.7942 2.20594C22.6943 3.10611 23.2 4.32701 23.2 5.60005V18.4C23.2 19.6731 22.6943 20.894 21.7942 21.7942C20.894 22.6943 19.6731 23.2 18.4 23.2H5.60005C4.32701 23.2 3.10611 22.6943 2.20594 21.7942C1.30576 20.894 0.800049 19.6731 0.800049 18.4V5.60005ZM12.4 8.00005C12.0818 8.00005 11.7766 8.12648 11.5515 8.35152C11.3265 8.57656 11.2 8.88179 11.2 9.20005V17.2C11.2 17.3061 11.1579 17.4079 11.0829 17.4829C11.0079 17.5579 10.9061 17.6 10.8 17.6H9.20005C8.88179 17.6 8.57656 17.7265 8.35152 17.9515C8.12648 18.1766 8.00005 18.4818 8.00005 18.8C8.00005 19.1183 8.12648 19.4235 8.35152 19.6486C8.57656 19.8736 8.88179 20 9.20005 20H10.8C11.5427 20 12.2548 19.7051 12.7799 19.1799C13.3051 18.6548 13.6 17.9427 13.6 17.2V9.20005C13.6 8.88179 13.4736 8.57656 13.2486 8.35152C13.0235 8.12648 12.7183 8.00005 12.4 8.00005ZM14.4 10.8V12.4C14.4 13.9456 15.6544 15.2 17.2 15.2H18C18.1061 15.2 18.2079 15.2422 18.2829 15.3172C18.3579 15.3922 18.4 15.494 18.4 15.6V17.2C18.4 17.3061 18.3579 17.4079 18.2829 17.4829C18.2079 17.5579 18.1061 17.6 18 17.6H15.6C15.2818 17.6 14.9766 17.7265 14.7515 17.9515C14.5265 18.1766 14.4 18.4818 14.4 18.8C14.4 19.1183 14.5265 19.4235 14.7515 19.6486C14.9766 19.8736 15.2818 20 15.6 20H18C18.7427 20 19.4548 19.7051 19.9799 19.1799C20.505 18.6548 20.8 17.9427 20.8 17.2V15.6C20.8 14.8574 20.505 14.1453 19.9799 13.6201C19.4548 13.095 18.7427 12.8 18 12.8H17.2C17.094 12.8 16.9922 12.7579 16.9172 12.6829C16.8422 12.6079 16.8 12.5061 16.8 12.4V10.8C16.8 10.694 16.8422 10.5922 16.9172 10.5172C16.9922 10.4422 17.094 10.4 17.2 10.4H19.6C19.9183 10.4 20.2235 10.2736 20.4486 10.0486C20.6736 9.82353 20.8 9.51831 20.8 9.20005C20.8 8.88179 20.6736 8.57656 20.4486 8.35152C20.2235 8.12648 19.9183 8.00005 19.6 8.00005H17.2C16.4574 8.00005 15.7453 8.29505 15.2201 8.82015C14.695 9.34525 14.4 10.0574 14.4 10.8Z" fill="#FFFF00"/>
</svg>
