<svg width="29" height="29" viewBox="0 0 29 29" fill="none" xmlns="http://www.w3.org/2000/svg">
<path d="M14.5 0C6.49177 0 0 6.49177 0 14.5C0 22.5082 6.49177 29 14.5 29C22.5082 29 29 22.5082 29 14.5C29 6.49177 22.5082 0 14.5 0ZM10.9505 20.5099H8.01427V11.0608H10.9505V20.5099ZM9.46427 9.90078C8.53687 9.90078 7.93724 9.24375 7.93724 8.43115C7.93724 7.60193 8.555 6.96453 9.50203 6.96453C10.4491 6.96453 11.0291 7.60193 11.0472 8.43115C11.0472 9.24375 10.4491 9.90078 9.46427 9.90078ZM21.6745 20.5099H18.7382V15.2733C18.7382 14.0544 18.3123 13.2267 17.2505 13.2267C16.4394 13.2267 15.9576 13.7871 15.7446 14.3263C15.666 14.5181 15.6464 14.79 15.6464 15.0604V20.5084H12.7086V14.0741C12.7086 12.8944 12.6709 11.9081 12.6316 11.0593H15.1827L15.3171 12.3718H15.376C15.7627 11.7556 16.7097 10.8463 18.2942 10.8463C20.226 10.8463 21.6745 12.1407 21.6745 14.9229V20.5099Z" fill="#E2E2E2"/>
</svg>
