<svg width="26" height="29" viewBox="0 0 26 29" fill="none" xmlns="http://www.w3.org/2000/svg">
<path d="M25.1146 22.0681L14.139 28.3163C13.9076 28.4491 13.6446 28.519 13.3768 28.519C13.109 28.519 12.846 28.4491 12.6146 28.3163L1.63904 22.0681C1.16648 21.7977 0.876831 21.3022 0.876831 20.7764V8.27996C0.876831 7.7393 1.16648 7.25868 1.63904 6.9883L12.6146 0.740068C12.846 0.607301 13.109 0.537354 13.3768 0.537354C13.6446 0.537354 13.9076 0.607301 14.139 0.740068L25.1146 6.9883C25.5873 7.25868 25.8768 7.75431 25.8768 8.27996V20.7764C25.8616 21.3021 25.5719 21.7977 25.1146 22.0681V22.0681Z" fill="#8D6748"/>
<path d="M13.3616 2.43701C13.133 2.43701 12.9043 2.49705 12.7062 2.61723L3.22444 8.0093C2.81282 8.23465 2.56897 8.67014 2.56897 9.12064V19.9049C2.56897 20.3705 2.81282 20.7911 3.22444 21.0164L12.7062 26.4085C12.9043 26.5287 13.1329 26.5887 13.3616 26.5887C13.5902 26.5887 13.819 26.5287 14.0171 26.4085L23.4989 21.0163C23.9105 20.7911 24.1543 20.3555 24.1543 19.905V9.12064C24.1543 8.65513 23.9105 8.23465 23.4989 8.0093L14.0171 2.61714C13.8189 2.49705 13.5903 2.43701 13.3616 2.43701V2.43701ZM13.3616 2.88761C13.514 2.88761 13.6513 2.93264 13.7884 3.00779L23.2701 8.39986C23.5293 8.54996 23.6969 8.83544 23.6969 9.13584V19.92C23.6969 20.2204 23.5293 20.5057 23.2701 20.6559L13.7885 26.0479C13.6513 26.123 13.5141 26.1681 13.3616 26.1681C13.2108 26.1675 13.0631 26.1259 12.9348 26.0478L3.45305 20.656C3.19387 20.5058 3.0262 20.2205 3.0262 19.9201V9.13584C3.0262 8.83544 3.19387 8.55006 3.45295 8.39976L12.9347 3.00779C13.0719 2.93264 13.2243 2.88751 13.3615 2.88751L13.3616 2.88761ZM12.4851 12.2899H13.7656C13.8114 12.2899 13.8418 12.2748 13.8723 12.2448C14.6345 11.4037 14.7108 9.64639 14.7108 9.12074C14.7108 9.04569 14.6497 8.97054 14.5583 8.97054H11.6924C11.6162 8.97054 11.54 9.03058 11.54 9.12074C11.54 9.63138 11.6162 11.3887 12.3784 12.2448C12.4089 12.2748 12.4394 12.2899 12.4851 12.2899V12.2899ZM12.1345 9.43615H14.1467C14.2229 9.43615 14.2991 9.49619 14.2991 9.58635C14.2991 10.0069 14.2229 11.1934 13.7046 11.8092C13.6589 11.8393 13.6284 11.8543 13.5826 11.8543H12.6833C12.6375 11.8543 12.6071 11.8393 12.5766 11.8092C12.0582 11.2085 11.9973 10.0069 11.9821 9.58635C11.9821 9.51129 12.043 9.43615 12.1345 9.43615ZM13.415 8.67024C13.415 8.67024 13.9638 8.35473 13.6283 7.78405C13.4302 7.48355 13.3388 7.22828 13.415 7.12311C13.2168 7.36347 12.8815 7.61874 13.2473 8.1595C13.3694 8.29469 13.4302 8.57998 13.415 8.67014V8.67024ZM12.8052 8.71517C12.8052 8.71517 13.171 8.50493 12.9424 8.11437C12.8052 7.91914 12.7443 7.73892 12.8052 7.67878C12.668 7.84399 12.4546 8.0092 12.6985 8.38475C12.7747 8.4598 12.8052 8.65513 12.8052 8.71517ZM12.7595 11.6741H13.5217C13.5522 11.6741 13.5826 11.6591 13.6131 11.6291C13.8723 11.3287 13.9943 10.8631 14.0552 10.4575C14.0552 10.4575 14.04 10.5927 13.6741 10.7279C13.1712 10.9081 12.2869 10.7879 12.2869 10.7879C12.3631 11.1033 12.4852 11.4037 12.668 11.6291C12.6832 11.6591 12.729 11.6741 12.7595 11.6741ZM7.02776 15.8946V12.8907H6.46379L5.53391 14.3026L4.60403 12.8907H4.03997V15.9096H4.57346V13.7618L5.51858 15.1586H5.53381L6.49426 13.7468V15.8946H7.02776V15.8946ZM10.4425 12.9508C10.2443 12.8757 10.0309 12.8306 9.80227 12.8306C9.57356 12.8306 9.36018 12.8606 9.16194 12.9509C8.9637 13.0259 8.79612 13.146 8.65891 13.2812C8.51483 13.4228 8.40082 13.5913 8.32356 13.7768C8.24739 13.9721 8.20149 14.1673 8.20149 14.3776V14.3926C8.20149 14.6029 8.24739 14.8132 8.32356 14.9934C8.39973 15.1888 8.50647 15.3539 8.64368 15.4891C8.78088 15.6242 8.94856 15.7444 9.14661 15.8195C9.34485 15.8946 9.55833 15.9397 9.78694 15.9397C10.0156 15.9397 10.229 15.9096 10.4273 15.8195C10.6254 15.7444 10.7931 15.6242 10.9302 15.4891C11.0743 15.3475 11.1883 15.179 11.2656 14.9935C11.3418 14.7982 11.3876 14.6029 11.3876 14.3926V14.3776C11.3876 14.1673 11.3417 13.9571 11.2656 13.7768C11.1894 13.5816 11.0827 13.4164 10.9455 13.2813C10.8083 13.146 10.6406 13.0258 10.4425 12.9508V12.9508ZM10.8083 14.4076C10.8083 14.5428 10.7779 14.678 10.7321 14.8132C10.6711 14.9333 10.6102 15.0535 10.5187 15.1436C10.425 15.2353 10.3169 15.3114 10.1986 15.3689C10.0765 15.429 9.93938 15.459 9.78694 15.459C9.64983 15.459 9.49739 15.429 9.37541 15.3689C9.25705 15.3114 9.14894 15.2353 9.0553 15.1437C8.96379 15.0385 8.88762 14.9333 8.84182 14.7983C8.79612 14.663 8.76565 14.5279 8.76565 14.3776V14.3626C8.76565 14.2274 8.79612 14.0922 8.84182 13.957C8.90286 13.8369 8.96379 13.7168 9.0553 13.6266C9.14893 13.5349 9.25704 13.4588 9.37541 13.4013C9.49739 13.3412 9.6345 13.3112 9.78694 13.3112C9.93928 13.3112 10.0766 13.3412 10.1986 13.4013C10.3169 13.4588 10.425 13.5349 10.5187 13.6266C10.6102 13.7318 10.6864 13.8369 10.7321 13.972C10.7779 14.1072 10.8082 14.2424 10.8082 14.3926V14.4076H10.8083ZM13.0644 13.957C13.1253 13.8369 13.1864 13.7167 13.2778 13.6266C13.3714 13.535 13.4795 13.4589 13.5979 13.4013C13.7198 13.3412 13.8418 13.3112 13.9943 13.3112C14.1772 13.3112 14.3296 13.3412 14.4668 13.4163C14.604 13.4914 14.726 13.5816 14.8479 13.6867L15.1986 13.2962C15.1223 13.2211 15.0461 13.161 14.9698 13.1009C14.8937 13.0408 14.8022 12.9958 14.7108 12.9508C14.604 12.9207 14.5125 12.8906 14.3906 12.8606C14.2687 12.8456 14.1467 12.8306 14.0095 12.8306C13.7656 12.8306 13.5674 12.8756 13.3693 12.9507C13.1711 13.0258 13.0034 13.146 12.8662 13.2812C12.7317 13.4272 12.6234 13.5949 12.5461 13.7768C12.4662 13.9674 12.4248 14.1714 12.4241 14.3776V14.3926C12.4241 14.6029 12.4698 14.7981 12.5461 14.9934C12.6223 15.1888 12.729 15.3539 12.8662 15.4891C13.0034 15.6242 13.1711 15.7444 13.354 15.8195C13.547 15.8997 13.7544 15.9406 13.9638 15.9397C14.101 15.9397 14.2381 15.9397 14.3753 15.9096C14.4821 15.8946 14.604 15.8495 14.6954 15.8045C14.7869 15.7594 14.8784 15.7143 14.9698 15.6393C15.0614 15.5642 15.1375 15.5041 15.2138 15.4139L14.8632 15.0685C14.726 15.1888 14.5888 15.2788 14.4668 15.3539C14.3448 15.429 14.1772 15.459 13.9943 15.459C13.8571 15.459 13.7198 15.4139 13.5979 15.3689C13.476 15.3238 13.3693 15.2337 13.2778 15.1437C13.1864 15.0385 13.1101 14.9333 13.0644 14.7981C13.0187 14.663 12.9881 14.5278 12.9881 14.3776V14.3626C12.9881 14.2274 13.0187 14.0922 13.0644 13.957V13.957ZM16.2809 12.8907V15.8946H16.8144V14.633H18.2779V15.8946H18.8114V12.8906H18.2779V14.1374H16.8144V12.8906H16.2809V12.8907ZM22.1345 15.1737L22.4394 15.8947H23.0033L21.6619 12.8757H21.174L19.8326 15.8946H20.3815L20.7015 15.1736H22.1345V15.1737ZM21.418 13.5065L21.9363 14.7081H20.8997L21.418 13.5065V13.5065ZM3.65891 17.006H23.0948V16.8408H3.65891V17.006ZM14.8327 11.1933C14.8327 11.2534 14.8174 11.2985 14.8174 11.3586H23.0948V11.1933H14.8326H14.8327ZM11.4333 11.1933H3.65891V11.3586H11.4486C11.4486 11.2986 11.4332 11.2535 11.4332 11.1933H11.4333Z" fill="#D9D9D9"/>
</svg>
