<svg width="31" height="31" viewBox="0 0 31 31" fill="none" xmlns="http://www.w3.org/2000/svg">
<path d="M15.3769 28.743C15.0227 28.7432 14.6748 28.6501 14.3681 28.473L11.1581 26.5727C10.679 26.3046 10.9125 26.2099 11.0709 26.1546C11.5804 25.9972 12.0683 25.7767 12.5231 25.4984C12.5612 25.4807 12.6031 25.4731 12.645 25.4763C12.6868 25.4794 12.7271 25.4931 12.7622 25.5162L15.2287 26.9815C15.2747 27.0058 15.3258 27.0185 15.3778 27.0185C15.4298 27.0185 15.4809 27.0058 15.5269 26.9815L25.1456 21.4296C25.1906 21.4026 25.2279 21.3644 25.2537 21.3187C25.2795 21.2731 25.2929 21.2215 25.2928 21.169V10.0634C25.2928 10.0101 25.2791 9.95764 25.253 9.91117C25.2269 9.8647 25.1893 9.82574 25.1437 9.79804L15.525 4.25086C15.4796 4.22531 15.4285 4.21189 15.3764 4.21189C15.3243 4.21189 15.2732 4.22531 15.2278 4.25086L5.61467 9.79992C5.56882 9.82704 5.53075 9.86554 5.50414 9.91169C5.47753 9.95784 5.46329 10.0101 5.4628 10.0634V21.1643C5.46293 21.2166 5.47698 21.268 5.5035 21.3132C5.53002 21.3583 5.56807 21.3956 5.61374 21.4212L8.25186 22.9437C9.68155 23.658 10.5572 22.8162 10.5572 21.9705V11.0102C10.5572 10.9356 10.5868 10.8641 10.6396 10.8114C10.6923 10.7586 10.7638 10.729 10.8384 10.729H12.0572C12.1318 10.729 12.2033 10.7586 12.256 10.8114C12.3088 10.8641 12.3384 10.9356 12.3384 11.0102V21.9715C12.3384 23.8793 11.2997 24.9715 9.4903 24.9715C8.70972 24.9851 7.94137 24.7763 7.27499 24.3696L4.74655 22.9193C4.4396 22.7405 4.18491 22.4844 4.0079 22.1765C3.83089 21.8685 3.73776 21.5195 3.7378 21.1643V10.0634C3.73689 9.7076 3.82963 9.35787 4.0067 9.04932C4.18377 8.74076 4.43893 8.48424 4.74655 8.30554L14.3662 2.75179C14.6761 2.58226 15.0236 2.49341 15.3769 2.49341C15.7301 2.49341 16.0776 2.58226 16.3875 2.75179L26.0062 8.30554C26.3131 8.48394 26.5679 8.73972 26.7451 9.04734C26.9222 9.35496 27.0156 9.70367 27.0159 10.0587V21.1643C27.0154 21.5195 26.9219 21.8684 26.7448 22.1763C26.5677 22.4841 26.313 22.7403 26.0062 22.9193L16.3875 28.473C16.0802 28.6503 15.7316 28.7435 15.3769 28.743V28.743Z" fill="#83CD29"/>
<path d="M13.5525 17.4491C13.5525 17.3746 13.5821 17.303 13.6349 17.2503C13.6876 17.1975 13.7591 17.1679 13.8337 17.1679H15.0778C15.1443 17.1681 15.2085 17.1919 15.2591 17.2349C15.3098 17.278 15.3435 17.3376 15.3544 17.4032C15.5419 18.6698 16.1044 19.3082 18.6478 19.3082C20.6737 19.3082 21.5372 18.8498 21.5372 17.7745C21.5372 17.1548 21.2925 16.6945 18.1434 16.386C15.5109 16.1254 13.8834 15.5423 13.8834 13.4385C13.8834 11.4979 15.5194 10.3401 18.2616 10.3401C21.3431 10.3401 22.8684 11.4098 23.0616 13.7048C23.0645 13.7431 23.0596 13.7816 23.0471 13.8179C23.0345 13.8543 23.0147 13.8877 22.9888 13.916C22.9629 13.9444 22.9314 13.9672 22.8964 13.9829C22.8613 13.9987 22.8234 14.0071 22.785 14.0076H21.5325C21.4697 14.0067 21.4089 13.9848 21.36 13.9454C21.3111 13.906 21.2767 13.8513 21.2625 13.7901C20.9634 12.4579 20.2312 12.0323 18.2625 12.0323C16.05 12.0323 15.7931 12.8029 15.7931 13.3804C15.7931 14.0798 16.0969 14.2842 19.0837 14.6788C22.0397 15.0698 23.4441 15.6229 23.4441 17.7004C23.4441 19.7967 21.6966 20.9966 18.6487 20.9966C14.4347 21.0023 13.5525 19.0701 13.5525 17.4491V17.4491Z" fill="#83CD29"/>
</svg>
