<svg width="34" height="34" viewBox="0 0 34 34" fill="none" xmlns="http://www.w3.org/2000/svg">
<path fill-rule="evenodd" clip-rule="evenodd" d="M17 0C20.3623 0 23.6491 0.997033 26.4447 2.86502C29.2403 4.733 31.4193 7.38804 32.7059 10.4944C33.9926 13.6007 34.3293 17.0189 33.6733 20.3165C33.0174 23.6142 31.3983 26.6433 29.0208 29.0208C26.6433 31.3983 23.6142 33.0174 20.3165 33.6733C17.0189 34.3293 13.6007 33.9926 10.4944 32.7059C7.38804 31.4193 4.733 29.2403 2.86502 26.4447C0.997033 23.6491 0 20.3623 0 17C0 12.4913 1.79107 8.1673 4.97918 4.97918C8.1673 1.79107 12.4913 0 17 0Z" fill="#83CD29"/>
<path d="M17.1731 32.9407C16.7329 32.9407 16.3221 32.8233 15.9407 32.6179L12.0379 30.2997C11.451 29.977 11.7445 29.8596 11.9205 29.8009C12.7128 29.5368 12.8595 29.4782 13.6811 29.0086C13.7692 28.9499 13.8866 28.9792 13.9745 29.0379L16.9677 30.8279C17.085 30.8866 17.2317 30.8866 17.3198 30.8279L29.028 24.0495C29.1454 23.9909 29.2041 23.8735 29.2041 23.7268V10.1992C29.2041 10.0525 29.1454 9.93511 29.028 9.87642L17.3198 3.1273C17.2024 3.06862 17.0557 3.06862 16.9677 3.1273L5.25942 9.87653C5.14205 9.93522 5.08337 10.0819 5.08337 10.1993V23.7268C5.08337 23.8442 5.14205 23.9909 5.25942 24.0495L8.45799 25.8981C10.1893 26.7784 11.2749 25.7514 11.2749 24.7244V11.3729C11.2749 11.1968 11.4217 11.0208 11.6271 11.0208H13.1237C13.2997 11.0208 13.4758 11.1675 13.4758 11.3729V24.7243C13.4758 27.0425 12.2139 28.3922 10.0131 28.3922C9.33826 28.3922 8.8101 28.3923 7.31363 27.6587L4.23244 25.8981C3.46953 25.4579 3.00005 24.6363 3.00005 23.756V10.2286C3.00005 9.34835 3.46953 8.52679 4.23244 8.08653L15.9407 1.30818C16.6742 0.897369 17.6719 0.897369 18.4054 1.30818L30.1137 8.08653C30.8766 8.52668 31.3461 9.34824 31.3461 10.2286V23.7561C31.3461 24.6364 30.8766 25.458 30.1137 25.8981L18.4054 32.6767C18.024 32.8528 17.5839 32.9407 17.1731 32.9407ZM20.7823 23.6386C15.6471 23.6386 14.5908 21.2913 14.5908 19.2958C14.5908 19.1198 14.7375 18.9437 14.9429 18.9437H16.4687C16.6448 18.9437 16.7916 19.0611 16.7916 19.2371C17.0263 20.7923 17.7012 21.5553 20.8116 21.5553C23.2765 21.5553 24.333 20.9978 24.333 19.6774C24.333 18.9144 24.0396 18.3569 20.1955 17.9753C16.997 17.6525 15.0016 16.9484 15.0016 14.3955C15.0016 12.0185 16.9969 10.6101 20.3422 10.6101C24.0981 10.6101 25.9468 11.9011 26.1816 14.7182C26.1816 14.8062 26.1522 14.8942 26.0935 14.9823C26.0348 15.0409 25.9468 15.0996 25.8588 15.0996H24.333C24.1862 15.0996 24.0395 14.9823 24.0101 14.8355C23.658 13.2217 22.7484 12.6935 20.3422 12.6935C17.6427 12.6935 17.3198 13.6325 17.3198 14.3367C17.3198 15.1878 17.7012 15.4517 21.3398 15.9212C24.9492 16.3907 26.651 17.0656 26.651 19.5893C26.6217 22.1716 24.509 23.6386 20.7823 23.6386Z" fill="#F2F5F7"/>
</svg>
