<svg width="64" height="88" viewBox="0 0 64 88" fill="none" xmlns="http://www.w3.org/2000/svg">
<path d="M8.75635 41.675C16.2189 44.298 24.0916 45.5607 32.0001 45.4031C39.9088 45.5597 47.7815 44.296 55.2438 41.6719C61.0688 39.4 63.1345 36.875 63.1345 35.4219V24.3125C61.098 25.6763 58.9131 26.8044 56.622 27.675C48.7265 30.5022 40.3854 31.8806 32.0001 31.7438C23.6155 31.878 15.2753 30.5019 7.37822 27.6812C5.08594 26.8106 2.90087 25.6803 0.865723 24.3125V35.4062C0.865723 36.8875 2.9376 39.4 8.75635 41.675ZM8.75635 62.6281C11.3926 63.6335 14.1111 64.4083 16.8813 64.9437C21.8627 65.9074 26.9264 66.3815 32.0001 66.3594C37.0737 66.3826 42.1374 65.9095 47.1188 64.9469C49.889 64.4114 52.6076 63.6366 55.2438 62.6312C61.0688 60.3594 63.1345 57.8344 63.1345 56.3812V45.7875C61.4511 46.8005 59.6817 47.6632 57.847 48.3656C49.5525 51.3024 40.7976 52.7239 32.0001 52.5625C23.2016 52.7189 14.4467 51.2921 6.15322 48.35C4.31923 47.6457 2.55005 46.7831 0.865723 45.7719V56.375C0.865723 57.8312 2.9376 60.3469 8.75635 62.6281ZM32.0001 87.75C49.1876 87.75 63.1345 82.3 63.1345 75.5813V66.7156C61.6031 67.6387 59.9988 68.4352 58.3376 69.0969L57.847 69.2937C49.5541 72.2392 40.7992 73.6693 32.0001 73.5156C23.2007 73.6737 14.445 72.2435 6.15322 69.2937C5.98447 69.2312 5.82197 69.1594 5.6626 69.0969C4.00143 68.4352 2.39713 67.6387 0.865723 66.7156V75.5813C0.865723 82.3 14.8126 87.75 32.0001 87.75Z" fill="#FF0000"/>
<path d="M32.0001 24.5875C49.1951 24.5875 63.1345 19.1394 63.1345 12.4187C63.1345 5.69813 49.1951 0.25 32.0001 0.25C14.8051 0.25 0.865723 5.69813 0.865723 12.4187C0.865723 19.1394 14.8051 24.5875 32.0001 24.5875Z" fill="#FF0000"/>
</svg>
