<svg width="234" height="242" viewBox="0 0 234 242" fill="none" xmlns="http://www.w3.org/2000/svg">
<path d="M226.609 149.358C196.869 155.493 194.824 145.424 194.824 145.424C226.224 98.8305 239.351 39.6875 228.024 25.2125C197.12 -14.2725 143.625 4.40154 142.732 4.88554L142.445 4.93754C136.569 3.71754 129.994 2.99154 122.603 2.87054C109.147 2.65054 98.9387 6.39854 91.1927 12.2725C91.1927 12.2725 -4.23729 -27.0415 0.20171 61.7165C1.14571 80.5985 27.2657 204.59 58.4197 167.139C69.8067 153.444 80.8097 141.865 80.8097 141.865C86.2737 145.495 92.8157 147.347 99.6737 146.682L100.207 146.23C100.041 147.93 100.117 149.593 100.42 151.562C92.3937 160.529 94.7527 162.103 78.7087 165.406C62.4737 168.752 72.0107 174.708 78.2377 176.266C85.7867 178.153 103.251 180.827 115.051 164.308L114.581 166.193C117.725 168.712 119.933 182.576 119.563 195.145C119.193 207.713 118.946 216.342 121.423 223.082C123.902 229.822 126.371 244.987 147.463 240.468C165.086 236.691 174.219 226.904 175.49 210.578C176.391 198.972 178.432 200.688 178.56 190.311L180.197 185.399C182.084 169.666 180.497 164.59 191.354 166.951L193.994 167.183C201.984 167.546 212.444 165.897 218.583 163.044C231.801 156.91 239.641 146.667 226.607 149.358H226.609Z" fill="#336791"/>
</svg>
