<svg width="29" height="29" viewBox="0 0 29 29" fill="none" xmlns="http://www.w3.org/2000/svg">
<g clip-path="url(#clip0_13_317)">
<path d="M14.2583 0.71582C7.16728 0.71582 7.61003 3.80296 7.61003 3.80296L7.6179 7.00133H14.3847V7.96156H4.93023C4.93023 7.96156 0.3927 7.44493 0.3927 14.6278C0.3927 21.8108 4.35317 21.5561 4.35317 21.5561H6.71676V18.2228C6.71676 18.2228 6.58934 14.2468 10.614 14.2468H17.3255C17.3255 14.2468 21.0962 14.308 21.0962 10.5883V4.43795C21.0962 4.43795 21.6689 0.71582 14.2583 0.71582ZM10.5271 2.86666C10.687 2.86652 10.8453 2.89803 10.9931 2.95939C11.1408 3.02076 11.2751 3.11077 11.3882 3.22429C11.5012 3.3378 11.5909 3.47258 11.652 3.62092C11.7132 3.76926 11.7445 3.92825 11.7444 4.08878C11.7445 4.24931 11.7132 4.40829 11.652 4.55663C11.5909 4.70497 11.5012 4.83975 11.3882 4.95327C11.2751 5.06678 11.1408 5.1568 10.9931 5.21816C10.8453 5.27953 10.687 5.31104 10.5271 5.31089C10.3672 5.31104 10.2088 5.27953 10.061 5.21816C9.91327 5.1568 9.77902 5.06678 9.66595 4.95327C9.55288 4.83975 9.46321 4.70497 9.40209 4.55663C9.34096 4.40829 9.30957 4.24931 9.30972 4.08878C9.30957 3.92825 9.34096 3.76926 9.40209 3.62092C9.46321 3.47258 9.55288 3.3378 9.66595 3.22429C9.77902 3.11077 9.91327 3.02076 10.061 2.95939C10.2088 2.89803 10.3672 2.86652 10.5271 2.86666V2.86666Z" fill="url(#paint0_linear_13_317)"/>
<path d="M14.4596 28.6121C21.5506 28.6121 21.1079 25.525 21.1079 25.525L21.1 22.3267H14.3331V21.3665H23.7875C23.7875 21.3665 28.3251 21.8831 28.3251 14.7001C28.3251 7.51712 24.3646 7.77187 24.3646 7.77187H22.001V11.105C22.001 11.105 22.1284 15.081 18.1038 15.081H11.3923C11.3923 15.081 7.62159 15.0198 7.62159 18.7396V24.8901C7.62159 24.8901 7.04901 28.6121 14.4595 28.6121H14.4596ZM18.1908 26.4615C18.0309 26.4616 17.8726 26.4301 17.7248 26.3688C17.577 26.3074 17.4428 26.2174 17.3297 26.1039C17.2166 25.9903 17.127 25.8556 17.0658 25.7072C17.0047 25.5589 16.9733 25.3999 16.9735 25.2394C16.9733 25.0788 17.0047 24.9198 17.0658 24.7715C17.1269 24.6231 17.2166 24.4883 17.3297 24.3748C17.4427 24.2613 17.577 24.1713 17.7248 24.1099C17.8725 24.0485 18.0309 24.017 18.1908 24.0171C18.3507 24.017 18.5091 24.0485 18.6568 24.1099C18.8046 24.1712 18.9389 24.2613 19.0519 24.3748C19.165 24.4883 19.2547 24.6231 19.3158 24.7714C19.3769 24.9197 19.4083 25.0787 19.4082 25.2393C19.4083 25.3998 19.3769 25.5588 19.3158 25.7071C19.2547 25.8555 19.165 25.9902 19.0519 26.1037C18.9389 26.2173 18.8046 26.3073 18.6568 26.3686C18.5091 26.43 18.3507 26.4615 18.1908 26.4614V26.4615Z" fill="url(#paint1_linear_13_317)"/>
</g>
<defs>
<linearGradient id="paint0_linear_13_317" x1="3.077" y1="3.22491" x2="16.9731" y2="16.9286" gradientUnits="userSpaceOnUse">
<stop stop-color="#387EB8"/>
<stop offset="1" stop-color="#366994"/>
</linearGradient>
<linearGradient id="paint1_linear_13_317" x1="11.5735" y1="12.0597" x2="26.4936" y2="26.109" gradientUnits="userSpaceOnUse">
<stop stop-color="#FFE052"/>
<stop offset="1" stop-color="#FFC331"/>
</linearGradient>
<clipPath id="clip0_13_317">
<rect width="28" height="28" fill="white" transform="translate(0.376831 0.708008)"/>
</clipPath>
</defs>
</svg>
