<svg width="117" height="100" viewBox="0 0 117 100" fill="none" xmlns="http://www.w3.org/2000/svg">
<path d="M111.805 76.5269C105.595 79.7637 73.4255 92.9905 66.5768 96.5609C59.7282 100.132 55.9236 100.097 50.5132 97.5109C45.1032 94.9246 10.8695 81.0964 4.70273 78.1487C1.62091 76.6759 0 75.4323 0 74.2578V62.4959C0 62.4959 44.5682 52.7937 51.7632 50.2123C58.9577 47.6309 61.4541 47.5378 67.5768 49.7805C73.7005 52.0241 110.312 58.6296 116.364 60.8459L116.361 72.4414C116.362 73.6041 114.965 74.8796 111.805 76.5269Z" fill="#912626"/>
<path d="M111.802 64.8346C105.593 68.07 73.4244 81.2973 66.5758 84.8673C59.7276 88.4387 55.9231 88.4037 50.5131 85.8173C45.1026 83.2328 10.8704 69.4023 4.70399 66.4564C-1.46237 63.5087 -1.59147 61.48 4.46581 59.1082C10.5231 56.7355 44.5676 43.3787 51.7635 40.7973C58.9581 38.2168 61.454 38.1228 67.5767 40.3664C73.6999 42.6091 105.676 55.3368 111.727 57.5528C117.779 59.7714 118.012 61.5982 111.802 64.8346Z" fill="#C6302B"/>
<path d="M111.805 57.4955C105.595 60.7327 73.4255 73.9591 66.5768 77.5309C59.7282 81.1004 55.9236 81.0659 50.5132 78.4795C45.1027 75.8945 10.8695 62.065 4.70273 59.1173C1.62091 57.6445 0 56.4027 0 55.2277V43.4645C0 43.4645 44.5682 33.7627 51.7632 31.1814C58.9577 28.6 61.4541 28.5064 67.5768 30.7495C73.7009 32.9927 110.313 39.5968 116.364 41.8136L116.361 53.4105C116.362 54.5727 114.965 55.8482 111.805 57.4955Z" fill="#912626"/>
<path d="M111.802 45.8032C105.593 49.0396 73.4244 62.2659 66.5758 65.8373C59.7276 69.4073 55.9231 69.3723 50.5131 66.7859C45.1026 64.2014 10.8704 50.3714 4.70399 47.425C-1.46237 44.4782 -1.59147 42.4491 4.46581 40.0764C10.5231 37.705 44.5681 24.3473 51.7635 21.7664C58.9581 19.1855 61.454 19.0919 67.5767 21.335C73.6999 23.5778 105.676 36.3046 111.727 38.5214C117.779 40.7396 118.012 42.5669 111.802 45.8032Z" fill="#C6302B"/>
<path d="M111.805 37.7586C105.595 40.995 73.4255 54.2223 66.5768 57.7941C59.7282 61.3641 55.9236 61.3291 50.5132 58.7427C45.1027 56.1577 10.8695 42.3277 4.70273 39.3814C1.62091 37.9073 0 36.665 0 35.4914V23.7277C0 23.7277 44.5682 14.0264 51.7632 11.4454C58.9577 8.86362 61.4541 8.7709 67.5768 11.0136C73.7009 13.2568 110.313 19.8609 116.364 22.0777L116.361 33.6741C116.362 34.8354 114.965 36.1109 111.805 37.7586Z" fill="#912626"/>
<path d="M111.802 26.0664C105.593 29.3027 73.4245 42.53 66.5758 46.1C59.7276 49.67 55.9231 49.635 50.5131 47.05C45.1031 44.4636 10.8704 30.6345 4.70446 27.6877C-1.46236 24.7414 -1.59099 22.7118 4.46582 20.3395C10.5231 17.9677 44.5681 4.61181 51.7636 2.02999C58.9581 -0.551373 61.454 -0.644101 67.5767 1.59908C73.6999 3.84226 105.676 16.5691 111.727 18.7859C117.779 21.0023 118.012 22.83 111.802 26.0664Z" fill="#C6302B"/>
<path d="M72.4013 14.6241L62.3967 15.6627L60.1572 21.0518L56.5399 15.0382L44.9876 14L53.6076 10.8914L51.0213 6.11957L59.0917 9.27593L66.6999 6.78502L64.6435 11.7191L72.4013 14.6241ZM59.5599 40.7687L40.8885 33.0246L67.6431 28.9178L59.5599 40.7687ZM33.6735 17.6196C41.5713 17.6196 47.9735 20.1014 47.9735 23.1623C47.9735 26.2241 41.5713 28.7055 33.6735 28.7055C25.7758 28.7055 19.3735 26.2237 19.3735 23.1623C19.3735 20.1014 25.7758 17.6196 33.6735 17.6196Z" fill="white"/>
<path d="M84.2251 16.0973L100.06 22.3545L84.2387 28.6059L84.2251 16.0973Z" fill="#621B1C"/>
<path d="M66.7068 23.0268L84.225 16.0973L84.2386 28.6059L82.5209 29.2777L66.7068 23.0268Z" fill="#9A2928"/>
</svg>
