<svg width="23" height="26" viewBox="0 0 23 26" fill="none" xmlns="http://www.w3.org/2000/svg">
<path d="M22.167 5.34399C22.0829 5.27641 21.9819 5.23298 21.875 5.21836C21.7681 5.20374 21.6592 5.21848 21.56 5.26099L11.9 9.44399C11.48 9.62699 10.954 9.71399 10.414 9.71399C9.661 9.71699 8.882 9.54199 8.339 9.30399C8.17353 9.23429 8.01597 9.14713 7.869 9.04399C7.909 9.02399 7.959 9.00199 8.014 8.97999L16.8 5.17599L18.11 5.73599V4.09899C18.112 3.98225 18.0875 3.86658 18.0385 3.7606C17.9895 3.65463 17.9172 3.5611 17.827 3.48699C17.7432 3.41948 17.6426 3.37609 17.536 3.36146C17.4294 3.34684 17.3209 3.36154 17.222 3.40399L7.562 7.58699C7.264 7.70699 7.008 7.85499 6.792 8.06999C6.54187 8.31675 6.39982 8.65264 6.397 9.00399C6.397 9.01399 6.4 9.03099 6.4 9.03099V23.761L6.398 23.781C6.398 23.785 6.401 23.787 6.401 23.791V23.807H6.403C6.423 24.322 6.683 24.65 6.931 24.882C7.711 25.57 9.021 25.955 10.415 25.975C11.075 25.975 11.745 25.875 12.365 25.609L22.028 21.425C22.283 21.315 22.45 21.042 22.45 20.733V5.95599C22.4515 5.83932 22.4269 5.72378 22.3779 5.61788C22.329 5.51197 22.2569 5.41838 22.167 5.34399ZM16.04 2.54399C16.023 2.32399 15.932 2.11399 15.77 1.98799C15.6859 1.92041 15.5849 1.87698 15.478 1.86236C15.3711 1.84774 15.2622 1.86248 15.163 1.90499L5.503 6.08599C5.083 6.26799 4.556 6.35599 4.017 6.35599C3.264 6.35799 2.485 6.18299 1.942 5.94399C1.77636 5.87546 1.61875 5.78894 1.472 5.68599C1.512 5.66599 1.562 5.64399 1.617 5.62199L10.404 1.81799L11.714 2.37799V0.742991C11.7158 0.626182 11.6912 0.510479 11.642 0.404511C11.5928 0.298543 11.5204 0.205045 11.43 0.130991C11.346 0.0634957 11.2453 0.0201152 11.1385 0.00549449C11.0318 -0.00912621 10.923 0.00556361 10.824 0.0479907L1.164 4.23199C0.866 4.35199 0.611 4.49899 0.394 4.71499C0.144241 4.96192 0.00255831 5.29779 0 5.64899C0 5.66099 0.00299978 5.67699 0.00299978 5.67699V20.454H0.00500011C0.0250001 20.969 0.285 21.297 0.533 21.529C1.313 22.217 2.623 22.601 4.018 22.621C4.39684 22.6188 4.77446 22.5779 5.145 22.499V9.02999C5.135 8.32999 5.415 7.65799 5.907 7.17399C6.24786 6.84335 6.65286 6.58606 7.097 6.41799L16.04 2.54399Z" fill="#d3d3d3"/>
</svg>
