<svg width="576" height="512" viewBox="0 0 576 512" fill="none" xmlns="http://www.w3.org/2000/svg">
<path d="M160 32C124.7 32 96 60.7 96 96V320C96 355.3 124.7 384 160 384H512C547.3 384 576 355.3 576 320V96C576 60.7 547.3 32 512 32H160ZM396 138.7L492 282.7C496.9 290.1 497.4 299.5 493.2 307.3C489 315.1 480.9 320 472 320H200C190.8 320 182.4 314.7 178.4 306.4C174.4 298.1 175.5 288.2 181.3 281L245.3 201C249.9 195.3 256.7 192 264 192C271.3 192 278.2 195.3 282.7 201L300 222.6L356 138.6C360.5 132 368 128 376 128C384 128 391.5 132 396 138.7ZM192 128C192 119.513 195.371 111.374 201.373 105.373C207.374 99.3714 215.513 96 224 96C232.487 96 240.626 99.3714 246.627 105.373C252.629 111.374 256 119.513 256 128C256 136.487 252.629 144.626 246.627 150.627C240.626 156.629 232.487 160 224 160C215.513 160 207.374 156.629 201.373 150.627C195.371 144.626 192 136.487 192 128ZM48 120C48 106.7 37.3 96 24 96C10.7 96 0 106.7 0 120V344C0 419.1 60.9 480 136 480H456C469.3 480 480 469.3 480 456C480 442.7 469.3 432 456 432H136C87.4 432 48 392.6 48 344V120Z" fill="#d3d3d3"/>
</svg>
