<svg width="33" height="33" viewBox="0 0 33 33" fill="none" xmlns="http://www.w3.org/2000/svg">
<path fill-rule="evenodd" clip-rule="evenodd" d="M16.0503 2.70801C18.8192 2.70801 21.526 3.52909 23.8283 5.06743C26.1306 6.60577 27.925 8.79227 28.9846 11.3504C30.0442 13.9086 30.3215 16.7235 29.7813 19.4393C29.2411 22.155 27.9077 24.6496 25.9498 26.6075C23.9919 28.5654 21.4973 29.8988 18.7816 30.439C16.0658 30.9792 13.2509 30.7019 10.6927 29.6423C8.13456 28.5827 5.94806 26.7883 4.40972 24.486C2.87138 22.1837 2.05029 19.4769 2.05029 16.708C2.05029 12.995 3.52529 9.43402 6.1508 6.80851C8.77631 4.183 12.3373 2.70801 16.0503 2.70801V2.70801Z" fill="#CC6699"/>
<path d="M24.8322 8.69992C24.1982 6.21392 20.0752 5.39992 16.1732 6.78192C13.7295 7.60307 11.4718 8.89812 9.52924 10.5929C7.38024 12.6029 7.03724 14.3529 7.17824 15.0839C7.67824 17.6639 11.2112 19.3499 12.6642 20.6009V20.6079C12.2362 20.8189 9.10024 22.4079 8.36424 24.0279C7.59024 25.7399 8.48724 26.9679 9.08224 27.1329C9.97556 27.348 10.9138 27.278 11.7653 26.9328C12.6168 26.5875 13.3389 25.9844 13.8302 25.2079C14.2363 24.5788 14.4903 23.8639 14.5723 23.1196C14.6542 22.3754 14.5617 21.6223 14.3022 20.9199C15.0021 20.7421 15.7296 20.7003 16.4452 20.7969C18.9012 21.0839 19.3832 22.6169 19.2912 23.2589C19.248 23.4874 19.156 23.704 19.0216 23.8938C18.8872 24.0836 18.7134 24.2422 18.5122 24.3589C18.3402 24.4659 18.2872 24.5019 18.3022 24.5819C18.3232 24.6969 18.4022 24.6929 18.5492 24.6679C18.9183 24.5517 19.2435 24.3264 19.482 24.0216C19.7205 23.7169 19.8611 23.3471 19.8852 22.9609C19.9442 21.4609 18.5032 19.7749 15.9512 19.8179C15.21 19.7968 14.4704 19.8981 13.7622 20.1179C13.7268 20.0774 13.6908 20.0374 13.6542 19.9979C12.0762 18.3149 9.16024 17.1239 9.28324 14.8609C9.32824 14.0379 9.61424 11.8719 14.8832 9.24392C19.2032 7.09092 22.6612 7.68392 23.2592 8.99692C24.1132 10.8729 21.4112 14.3579 16.9252 14.8609C16.4294 14.9616 15.9173 14.9493 15.4269 14.825C14.9364 14.7007 14.4803 14.4676 14.0922 14.1429C13.8562 13.8829 13.8212 13.8719 13.7332 13.9199C13.5902 13.9989 13.6812 14.2289 13.7332 14.3649C13.905 14.6745 14.1369 14.9467 14.4152 15.1654C14.6936 15.3842 15.0128 15.5452 15.3542 15.6389C17.118 16.0222 18.9577 15.8402 20.6122 15.1189C23.3332 14.0699 25.4552 11.1449 24.8322 8.69992V8.69992ZM13.2682 21.3709C13.4669 22.0556 13.4568 22.784 13.2392 23.4629C13.2159 23.5336 13.1902 23.6036 13.1622 23.6729C13.1342 23.7423 13.1039 23.8089 13.0712 23.8729C12.9029 24.2173 12.6849 24.535 12.4242 24.8159C11.6112 25.7029 10.4742 26.0389 9.98724 25.7559C9.46124 25.4509 9.72424 24.1999 10.6672 23.2029C11.3918 22.4864 12.2272 21.8914 13.1412 21.4409L13.2682 21.3709Z" fill="#1A1A1A"/>
</svg>
