<svg width="73" height="73" viewBox="0 0 73 73" fill="none" xmlns="http://www.w3.org/2000/svg">
<path d="M50.5385 30.8846C50.5385 25.474 48.6155 20.8457 44.7695 16.9997C40.9236 13.1537 36.2953 11.2308 30.8846 11.2308C25.474 11.2308 20.8457 13.1537 16.9997 16.9997C13.1537 20.8457 11.2308 25.474 11.2308 30.8846C11.2308 36.2953 13.1537 40.9236 16.9997 44.7695C20.8457 48.6155 25.474 50.5385 30.8846 50.5385C36.2953 50.5385 40.9236 48.6155 44.7695 44.7695C48.6155 40.9236 50.5385 36.2953 50.5385 30.8846ZM73 67.3846C73 68.9054 72.4443 70.2216 71.3329 71.3329C70.2216 72.4443 68.9054 73 67.3846 73C65.8053 73 64.4892 72.4443 63.4363 71.3329L48.3888 56.3293C43.1536 59.9559 37.3189 61.7692 30.8846 61.7692C26.7023 61.7692 22.7028 60.9576 18.8861 59.3344C15.0694 57.7112 11.7791 55.5177 9.01532 52.7539C6.2515 49.9901 4.05799 46.6998 2.4348 42.8831C0.811599 39.0664 0 35.0669 0 30.8846C0 26.7023 0.811599 22.7028 2.4348 18.8861C4.05799 15.0694 6.2515 11.7791 9.01532 9.01532C11.7791 6.2515 15.0694 4.05799 18.8861 2.4348C22.7028 0.811599 26.7023 0 30.8846 0C35.0669 0 39.0664 0.811599 42.8831 2.4348C46.6998 4.05799 49.9901 6.2515 52.7539 9.01532C55.5177 11.7791 57.7112 15.0694 59.3344 18.8861C60.9576 22.7028 61.7692 26.7023 61.7692 30.8846C61.7692 37.3189 59.9559 43.1536 56.3293 48.3888L71.3768 63.4363C72.4589 64.5184 73 65.8345 73 67.3846Z" fill="#1E262F"/>
</svg>
