<svg width="100" height="100" viewBox="0 0 100 100" fill="none" xmlns="http://www.w3.org/2000/svg">
<path d="M49.9619 0.000976562C22.4189 0.000976562 0.000976562 22.4189 0.000976562 49.9619C0.000976562 77.5049 22.4189 99.9229 49.9619 99.9229C77.5049 99.9229 99.9229 77.5049 99.9229 49.9619C99.9229 22.4189 77.5057 0.000976562 49.9619 0.000976562ZM49.9619 8.34395C72.9963 8.34395 91.5807 26.9275 91.5807 49.9619C91.5807 72.9971 72.9963 91.5807 49.9619 91.5807C26.9275 91.5807 8.34316 72.9971 8.34316 49.9619C8.34316 26.9275 26.9275 8.34395 49.9619 8.34395Z" fill="white"/>
<path fill-rule="evenodd" clip-rule="evenodd" d="M37.8047 47.4344C48.7453 38.4969 59.4469 29.2484 70.6258 20.5719C64.7625 29.582 58.732 38.4726 52.8687 47.482C47.8398 47.5054 42.8101 47.5054 37.8047 47.4344ZM47.0531 52.4156C52.1062 52.4156 57.1351 52.4156 62.164 52.4875C51.1523 61.3781 40.4984 70.6976 29.2961 79.35C35.1594 70.3398 41.1898 61.4258 47.0531 52.4156Z" fill="white"/>
</svg>
