<svg width="101" height="100" viewBox="0 0 101 100" fill="none" xmlns="http://www.w3.org/2000/svg">
<path d="M15.2124 14.0152C34.9702 -5.12503 66.5616 -4.61058 85.7019 15.25C87.8628 12.3687 89.7151 9.17887 91.053 5.88591C97.3304 25.0261 101.138 41.0793 99.6968 53.5304C98.9765 64.0265 94.8605 74.1113 88.0687 82.1378C70.3694 103.13 38.8804 105.806 17.8878 88.1066L17.4862 87.7492L17.4648 87.7351C17.3987 87.689 17.3339 87.6412 17.2702 87.5918C17.0788 87.4429 16.905 87.2808 16.7484 87.1074L16.6921 87.0433L16.0359 86.4601C15.3952 85.9113 14.755 85.3625 14.187 84.7414L13.9777 84.5046C-5.16297 64.7468 -4.545 33.1554 15.2124 14.0152ZM22.621 81.0062C20.7687 79.5656 18.0933 79.7711 16.6523 81.6234C15.3859 83.2523 15.3921 85.5175 16.6714 87.0199L16.6921 87.0433L17.4862 87.7492L17.564 87.8023C19.3624 88.9851 21.7827 88.7406 23.1628 87.0687L23.2386 86.9746C24.6792 85.1222 24.3702 82.4472 22.621 81.0062ZM90.539 11.0308C85.3933 21.8359 72.6327 30.0683 61.6222 32.641C51.2288 35.1105 42.173 33.0527 32.603 36.757C10.7874 45.0925 11.1991 71.0242 23.1359 76.8898L23.8562 77.3015C23.8562 77.3015 32.4788 75.5871 41.0054 73.323L41.7359 73.1277C45.1413 72.2097 48.4917 71.2097 51.2288 70.2011C65.4296 64.9531 81.0714 51.9871 86.2163 36.9629C83.5409 52.6043 70.0605 67.7312 56.5796 74.6261C49.3765 78.3304 43.8198 79.1535 31.9859 83.2699C30.5452 83.7843 29.4132 84.2992 29.4132 84.2992L29.846 84.2406L30.1335 84.2035L30.4198 84.1675C33.0331 83.8433 35.3816 83.6816 35.3816 83.6816C52.155 82.8582 78.4987 88.4152 90.7445 72.0535C103.299 55.3828 96.3015 28.4218 90.539 11.0308Z" fill="#6DB33F"/>
<path d="M22.621 81.0062C24.3702 82.4472 24.6792 85.1222 23.2386 86.9746C21.7984 88.8269 19.1226 89.0328 17.2702 87.5918C15.4183 86.1511 15.2116 83.4757 16.6523 81.6234C18.0933 79.7711 20.7687 79.5656 22.621 81.0062ZM90.539 11.0308C96.3015 28.4218 103.299 55.3828 90.7445 72.0535C78.4987 88.4152 52.155 82.8582 35.3816 83.6816C35.3816 83.6816 33.0331 83.8433 30.4198 84.1675L30.1335 84.2035C29.8945 84.2339 29.6538 84.266 29.4132 84.2992C29.4132 84.2992 30.5452 83.7843 31.9859 83.2699C43.8198 79.1535 49.3765 78.3304 56.5796 74.6261C70.0605 67.7312 83.5409 52.6043 86.2163 36.9629C81.0714 51.9871 65.4296 64.9531 51.2288 70.2011C41.453 73.8027 23.8562 77.3015 23.8562 77.3015L23.1359 76.8898C11.1991 71.0242 10.7874 45.0925 32.603 36.757C42.173 33.0527 51.2288 35.1105 61.6222 32.641C72.6327 30.0683 85.3933 21.8359 90.539 11.0308Z" fill="white"/>
</svg>
