<svg width="100" height="100" viewBox="0 0 100 100" fill="none" xmlns="http://www.w3.org/2000/svg">
<path d="M76.5625 0H23.4375C10.4933 0 0 10.4933 0 23.4375V76.5625C0 89.5067 10.4933 100 23.4375 100H76.5625C89.5067 100 100 89.5067 100 76.5625V23.4375C100 10.4933 89.5067 0 76.5625 0Z" fill="#F05138"/>
<path d="M79.1707 61.7344L79.4535 60.6031C83.6004 44.1094 73.5156 24.5055 56.3621 14.232C63.9019 24.4109 67.2008 36.7578 64.2789 47.5023C63.9961 48.4449 63.7133 49.3875 63.3363 50.3301C62.9594 50.0473 62.4883 49.7645 61.8285 49.4816C61.8285 49.4816 44.7691 38.9254 26.2961 20.3582C25.8246 19.8871 36.1922 35.1555 47.8793 47.5023C42.3187 44.3922 26.9559 33.1762 17.1535 24.3168C18.3789 26.2961 19.7926 28.2754 21.3008 30.066C29.4062 40.4336 40.0566 53.1574 52.7805 62.9594C43.8266 68.4262 31.1969 68.8973 18.6617 62.9594C15.5516 61.5457 12.6297 59.7551 9.89609 57.7758C15.1742 66.2582 23.3742 73.6098 33.3648 77.9453C45.2402 83.0348 57.116 82.7523 65.8812 78.0395C65.8812 78.0395 65.9754 78.0394 65.9754 77.9453C66.3523 77.757 66.7297 77.4742 67.1066 77.2855C71.3477 75.118 79.6418 72.95 84.166 81.6211C85.4855 83.6004 87.8418 72.2902 79.1707 61.7344Z" fill="white"/>
</svg>
