<svg width="100" height="100" viewBox="0 0 100 100" fill="none" xmlns="http://www.w3.org/2000/svg">
<g clip-path="url(#clip0_16_67)">
<path d="M76.5625 0H23.4375C10.4933 0 0 10.4933 0 23.4375V76.5625C0 89.5067 10.4933 100 23.4375 100H76.5625C89.5067 100 100 89.5067 100 76.5625V23.4375C100 10.4933 89.5067 0 76.5625 0Z" fill="#007ACC"/>
<path d="M22.1137 50.3316L22.082 54.4269H35.0977V91.4109H44.3047V54.4269H57.3203V50.4109C57.3203 48.1887 57.273 46.3316 57.2094 46.284C57.1617 46.2207 49.241 46.1887 39.6379 46.2047L22.1617 46.2523L22.1137 50.3316ZM80.6902 46.1359C83.2297 46.7711 85.1664 47.898 86.9441 49.739C87.8648 50.7234 89.2297 52.5172 89.341 52.9457C89.3727 53.0726 85.0234 55.9933 82.3887 57.6281C82.2934 57.6918 81.9121 57.2789 81.4836 56.6441C80.198 54.7711 78.8488 53.9613 76.7852 53.8187C73.7535 53.6121 71.8012 55.1996 71.8172 57.8504C71.8172 58.6281 71.9281 59.0883 72.2457 59.7234C72.9121 61.1043 74.1504 61.9297 78.0395 63.6121C85.198 66.6918 88.2613 68.7234 90.1664 71.6121C92.2934 74.8344 92.7695 79.9773 91.325 83.8027C89.7379 87.9613 85.8012 90.7867 80.2613 91.7234C78.5473 92.025 74.4836 91.9773 72.6426 91.6441C68.6266 90.9297 64.8172 88.9457 62.468 86.3426C61.5473 85.3265 59.7535 82.6758 59.8648 82.4851C59.9121 82.4219 60.325 82.1679 60.7852 81.898C61.2297 81.6441 62.9125 80.6758 64.4996 79.7551L67.3727 78.0883L67.9758 78.9773C68.8172 80.2629 70.6582 82.025 71.7695 82.6121C74.9598 84.2949 79.341 84.0566 81.4996 82.1203C82.4203 81.2789 82.8012 80.4058 82.8012 79.1203C82.8012 77.9613 82.6582 77.4535 82.0551 76.5805C81.2773 75.4695 79.6902 74.5328 75.182 72.5805C70.0234 70.3582 67.8012 68.9773 65.7695 66.7867C64.5949 65.5172 63.4836 63.4851 63.0234 61.7867C62.6426 60.3742 62.5473 56.8344 62.8488 55.4058C63.9121 50.4219 67.6742 46.9457 73.1027 45.9137C74.8648 45.5805 78.9598 45.7074 80.6902 46.1359Z" fill="white"/>
</g>
<defs>
<clipPath id="clip0_16_67">
<rect width="100" height="100" fill="white"/>
</clipPath>
</defs>
</svg>
